<svg width="50" height="50" viewBox="0 0 50 50" fill="none" xmlns="http://www.w3.org/2000/svg">
<path d="M31.868 34.2726C30.8319 31.4843 28.1445 29.4922 25 29.4922C21.8557 29.4922 19.1685 31.4841 18.1322 34.2721C15.6384 33.5102 14.0128 32.6174 13.9954 32.6077L12.5671 35.1656C12.6599 35.2175 14.6489 36.3168 17.6855 37.1957C17.8837 41.0588 21.0887 44.1406 25 44.1406C28.9113 44.1406 32.1163 41.0588 32.3144 37.1958C35.3512 36.3169 37.3401 35.2175 37.4329 35.1657L36.0047 32.6078C35.9858 32.6183 34.3767 33.5077 31.868 34.2726ZM25 41.2109C22.5769 41.2109 20.6055 39.2396 20.6055 36.8164C20.6055 34.3933 22.5769 32.4219 25 32.4219C27.4231 32.4219 29.3945 34.3933 29.3945 36.8164C29.3945 39.2396 27.4231 41.2109 25 41.2109V41.2109Z" fill="white"/>
<path d="M42.6758 23.6328C42.6452 23.6328 42.6146 23.633 42.5837 23.6333C41.5912 21.2499 40.1428 19.1398 38.3628 17.3897C41.612 16.6414 44.043 13.7271 44.043 10.2539V7.67969C44.043 3.44512 40.5979 0 36.3633 0C34.3119 0 32.3834 0.798828 30.933 2.24932L27.3229 5.85938H22.6771L19.067 2.24932C17.6166 0.798828 15.6881 0 13.6367 0C9.40215 0 5.95703 3.44512 5.95703 7.67969V10.2539C5.95703 13.7271 8.38799 16.6414 11.6373 17.3897C9.85723 19.1398 8.40879 21.2499 7.41631 23.6333C7.38545 23.633 7.35479 23.6328 7.32422 23.6328C3.28564 23.6328 0 26.9185 0 30.957C0 34.9956 3.28564 38.2812 7.32422 38.2812C7.35479 38.2812 7.38545 38.2811 7.41631 38.2808C10.3539 45.3353 17.282 50 25 50C32.718 50 39.6461 45.3353 42.5837 38.2808C42.6146 38.2812 42.6453 38.2812 42.6758 38.2812C46.7144 38.2812 50 34.9956 50 30.957C50 26.9185 46.7144 23.6328 42.6758 23.6328V23.6328ZM33.0046 4.3209C33.9017 3.42373 35.0945 2.92969 36.3633 2.92969C38.9825 2.92969 41.1133 5.06055 41.1133 7.67969V10.2539C41.1133 12.6771 39.1419 14.6484 36.7188 14.6484H34.8275C33.1552 13.6406 31.3245 12.8867 29.3945 12.4286V7.93096L33.0046 4.3209ZM26.4648 11.9705C25.5022 11.8964 24.5289 11.894 23.5352 11.9705V8.78906H26.4648V11.9705ZM13.2812 14.6484C10.8581 14.6484 8.88672 12.6771 8.88672 10.2539V7.67969C8.88672 5.06055 11.0176 2.92969 13.6367 2.92969C14.9055 2.92969 16.0983 3.42373 16.9955 4.3209L20.6055 7.93096V12.4285C18.6756 12.8866 16.8449 13.6405 15.1725 14.6483H13.2812V14.6484ZM42.6758 35.3516C41.9303 35.3516 41.5372 35.223 40.6286 35.0877C40.602 35.124 37.4254 47.0703 25 47.0703C12.3788 47.0703 9.46143 35.2108 9.37129 35.0877C8.44121 35.2263 8.07051 35.3516 7.32422 35.3516C4.90107 35.3516 2.92969 33.3802 2.92969 30.957C2.92969 28.5339 4.90107 26.5625 7.32422 26.5625C8.07129 26.5625 8.4626 26.691 9.37129 26.8264C9.39941 26.788 12.5745 14.8438 25 14.8438C37.6213 14.8438 40.5336 26.6966 40.6286 26.8264C41.563 26.6872 41.9277 26.5625 42.6758 26.5625C45.0989 26.5625 47.0703 28.5339 47.0703 30.957C47.0703 33.3802 45.0989 35.3516 42.6758 35.3516Z" fill="white"/>
<path d="M17.6758 23.6328H20.6055V26.5625H17.6758V23.6328Z" fill="white"/>
<path d="M29.3945 23.6328H32.3242V26.5625H29.3945V23.6328Z" fill="white"/>
</svg>
