<svg width="60" height="60" viewBox="0 0 60 60" fill="none" xmlns="http://www.w3.org/2000/svg">
<path d="M30 60C46.5685 60 60 46.5685 60 30C60 13.4315 46.5685 0 30 0C13.4315 0 0 13.4315 0 30C0 46.5685 13.4315 60 30 60Z" fill="#FFCA28"/>
<path d="M41.9325 46.1925C41.4525 46.1925 40.9725 46.0088 40.605 45.645C34.935 39.975 25.0575 39.975 19.3913 45.645C18.66 46.3763 17.4713 46.3763 16.74 45.645C16.0088 44.9138 16.0088 43.725 16.74 42.9938C20.2838 39.4538 24.99 37.5 30 37.5C35.01 37.5 39.7163 39.4538 43.2563 42.9938C43.9875 43.725 43.9875 44.9138 43.2563 45.645C42.8925 46.0125 42.4125 46.1925 41.9325 46.1925Z" fill="#6D4C41"/>
<path d="M18.75 26.25C20.8211 26.25 22.5 24.5711 22.5 22.5C22.5 20.4289 20.8211 18.75 18.75 18.75C16.6789 18.75 15 20.4289 15 22.5C15 24.5711 16.6789 26.25 18.75 26.25Z" fill="#6D4C41"/>
<path d="M41.25 26.25C43.3211 26.25 45 24.5711 45 22.5C45 20.4289 43.3211 18.75 41.25 18.75C39.1789 18.75 37.5 20.4289 37.5 22.5C37.5 24.5711 39.1789 26.25 41.25 26.25Z" fill="#6D4C41"/>
</svg>
