<svg width="50" height="50" viewBox="0 0 50 50" fill="none" xmlns="http://www.w3.org/2000/svg">
<g clip-path="url(#clip0)">
<path d="M22.4359 0H5.76924C2.58291 0 0 2.58291 0 5.76924V22.4359C0 22.7899 0.287012 23.077 0.641016 23.077H22.4359C22.7899 23.077 23.077 22.7899 23.077 22.4359V0.641016C23.077 0.287012 22.7898 0 22.4359 0ZM15.4602 14.1025H13.4615V16.1012C13.4615 17.1632 12.6005 18.0242 11.5385 18.0242C10.4765 18.0242 9.61543 17.1632 9.61543 16.1012V14.1025H7.6168C6.55478 14.1025 5.69375 13.2415 5.69375 12.1795C5.69375 11.1175 6.55478 10.2564 7.6168 10.2564H9.61543V8.25781C9.61543 7.1958 10.4765 6.33476 11.5385 6.33476C12.6005 6.33476 13.4615 7.1958 13.4615 8.25781V10.2564H15.4602C16.5222 10.2564 17.3832 11.1175 17.3832 12.1795C17.3832 13.2415 16.5222 14.1025 15.4602 14.1025Z" fill="#794C74"/>
<path d="M44.2308 0H27.5641C27.2101 0 26.923 0.287012 26.923 0.641016V22.4359C26.923 22.7899 27.2101 23.077 27.5641 23.077H49.359C49.713 23.077 50 22.7899 50 22.4359V5.76924C50 2.58291 47.4171 0 44.2308 0ZM42.3693 14.1025H34.526C33.464 14.1025 32.6029 13.2415 32.6029 12.1795C32.6029 11.1175 33.4639 10.2564 34.526 10.2564H42.3693C43.4314 10.2564 44.2924 11.1175 44.2924 12.1795C44.2924 13.2415 43.4314 14.1025 42.3693 14.1025Z" fill="#794C74"/>
<path d="M22.4359 26.923H0.641016C0.287012 26.923 0 27.2101 0 27.5641V44.2308C0 47.4171 2.58291 50 5.76924 50H22.4359C22.7899 50 23.077 49.713 23.077 49.359V27.5641C23.077 27.2102 22.7898 26.923 22.4359 26.923ZM15.6713 41.9533C14.9204 42.7042 13.7028 42.7046 12.9517 41.9533L11.5385 40.5402L10.1254 41.9534C9.37422 42.7044 8.15684 42.7044 7.40576 41.9534C6.65478 41.2025 6.65478 39.9849 7.40576 39.2338L8.81885 37.8204L7.40566 36.4072C6.65478 35.6564 6.65478 34.4387 7.40566 33.6876C8.15664 32.9365 9.37422 32.9365 10.1253 33.6876L11.5385 35.1007L12.9516 33.6875C13.7025 32.9366 14.9203 32.9366 15.6712 33.6875C16.4223 34.4384 16.4223 35.6561 15.6712 36.4071L14.2581 37.8204L15.6713 39.2336C16.4223 39.9848 16.4223 41.2024 15.6713 41.9533Z" fill="#794C74"/>
<path d="M49.359 26.923H27.5641C27.2101 26.923 26.923 27.2101 26.923 27.5641V49.359C26.923 49.713 27.2101 50 27.5641 50H44.2308C47.4171 50 50 47.4171 50 44.2308V27.5641C50 27.2102 49.713 26.923 49.359 26.923ZM42.3692 42.5167H34.5259C33.4639 42.5167 32.6028 41.6557 32.6028 40.5937C32.6028 39.5316 33.4639 38.6706 34.5259 38.6706H42.3692C43.4313 38.6706 44.2923 39.5316 44.2923 40.5937C44.2923 41.6557 43.4313 42.5167 42.3692 42.5167ZM42.3692 36.9705H34.5259C33.4639 36.9705 32.6028 36.1095 32.6028 35.0475C32.6028 33.9855 33.4639 33.1244 34.5259 33.1244H42.3692C43.4313 33.1244 44.2923 33.9855 44.2923 35.0475C44.2923 36.1095 43.4313 36.9705 42.3692 36.9705Z" fill="#794C74"/>
</g>
<defs>
<clipPath id="clip0">
<rect width="50" height="50" fill="white"/>
</clipPath>
</defs>
</svg>
