<svg width="45" height="45" viewBox="0 0 45 45" fill="none" xmlns="http://www.w3.org/2000/svg">
<circle cx="22.5" cy="22.5" r="22.5" fill="white"/>
<g clip-path="url(#clip0)">
<path d="M28.5875 22.906C28.671 22.9117 28.7552 22.9154 28.8404 22.9154C29.6505 22.9154 30.3337 22.6563 30.816 22.1661C31.2649 21.7098 31.5122 21.0696 31.5122 20.3634C31.5122 19.6571 31.265 19.0169 30.816 18.5606C30.3337 18.0704 29.6505 17.8114 28.8404 17.8114C27.7693 17.8114 26.8245 18.267 26.2725 18.9564L22.7239 12.9016C22.1486 11.92 20.7283 11.9182 20.1519 12.9016L19.5529 13.9236L19.4103 13.7811C19.477 13.5751 19.5133 13.3557 19.5133 13.1278C19.5133 11.9545 18.5588 11 17.3855 11C16.2123 11 15.2578 11.9545 15.2578 13.1278C15.2578 14.3011 16.2123 15.2556 17.3855 15.2556C17.6134 15.2556 17.8328 15.2192 18.0387 15.1526L18.5393 15.6531L11.7787 27.1881C11.0062 28.5062 11.8571 30.1561 13.3368 30.3279C13.4374 31.2665 14.234 32 15.199 32H21.5597C22.5195 32 23.3124 31.2744 23.42 30.3431H29.2892C30.9079 30.3431 31.9165 28.5864 31.097 27.1881L28.5875 22.906ZM24.1509 21.1209C24.084 21.3591 23.8646 21.5255 23.6174 21.5255C23.2894 21.5255 23.0333 21.2418 23.0652 20.9159C23.0926 20.6353 23.2516 20.6159 23.3003 20.4505C23.3309 20.3463 23.3054 20.2291 23.2236 20.1467C22.9633 19.8844 23.0271 19.4456 23.3532 19.2683C23.6663 19.098 24.0556 19.2661 24.151 19.6059C24.1737 19.6869 24.2284 19.7548 24.3026 19.7943C24.4227 19.8582 24.4015 19.8179 25.8276 19.8303C25.7811 20.0116 25.7633 20.1796 25.7604 20.3634C25.7604 20.5366 25.7843 20.7286 25.8276 20.8965H24.4471C24.3092 20.8964 24.1882 20.9882 24.1509 21.1209ZM28.8404 18.4266C30.0897 18.4266 30.897 19.1868 30.897 20.3633C30.897 21.5399 30.0897 22.3001 28.8404 22.3001C27.2307 22.3001 25.8949 21.0393 26.5476 19.6538C26.9087 18.936 27.8 18.4266 28.8404 18.4266ZM19.8454 16.0893C19.1088 15.3526 19.0621 15.3059 18.6184 14.8622C18.8126 14.7243 18.982 14.5549 19.1199 14.3607C20.9792 16.2199 20.0929 15.3336 20.347 15.5877C20.4856 15.7263 20.4856 15.9506 20.347 16.0893C20.2077 16.2285 19.9835 16.2273 19.8454 16.0893ZM15.873 13.1278C15.873 12.2938 16.5515 11.6152 17.3855 11.6152C18.2195 11.6152 18.8981 12.2938 18.8981 13.1278C18.8981 13.9582 18.2225 14.6403 17.3855 14.6403C16.5515 14.6403 15.873 13.9618 15.873 13.1278ZM16.4069 26.8992L17.2804 26.8937V28.7568C17.2804 28.9977 17.0844 29.1936 16.8436 29.1936C16.6027 29.1936 16.4069 28.9977 16.4069 28.7568V26.8992ZM19.4788 26.8937L20.3519 26.8992V28.7569C20.3519 28.9977 20.156 29.1936 19.9151 29.1936C19.6745 29.1936 19.4788 28.9977 19.4788 28.7569V26.8937ZM22.8177 30.1268C22.8177 30.8204 22.2534 31.3848 21.5597 31.3848H15.199C14.5053 31.3848 13.941 30.8204 13.941 30.1268C13.941 29.8777 13.941 29.5292 13.941 29.2707C13.941 28.1581 14.7103 27.1961 15.7916 26.9511V28.7568C15.7916 29.3369 16.2635 29.8088 16.8435 29.8088C17.4236 29.8088 17.8956 29.3369 17.8956 28.7568V26.8918H18.8636V28.7568C18.8636 29.3369 19.3353 29.8088 19.9151 29.8088C20.4952 29.8088 20.9671 29.3369 20.9671 28.7568V26.951C22.1383 27.2418 22.8177 28.2276 22.8177 29.2707V30.1268ZM29.2892 29.7278H23.433V29.2707C23.433 28.5137 23.1499 27.7913 22.6358 27.2364C21.7746 26.3069 20.6803 26.2857 20.6844 26.2869C20.6777 26.2869 20.5833 26.2766 20.4387 26.2766H16.3199C15.4889 26.2766 14.6951 26.6188 14.1229 27.2364C13.1401 28.2975 13.3534 29.4845 13.3258 29.7054C12.3365 29.5333 11.777 28.4076 12.3095 27.4992L14.2998 24.1033H17.6394C17.8093 24.1033 17.947 23.9655 17.947 23.7956C17.947 23.6258 17.8093 23.488 17.6394 23.488H14.6603L17.9572 17.8631H21.7972C21.9671 17.8631 22.1048 17.7253 22.1048 17.5554C22.1048 17.3856 21.9671 17.2478 21.7972 17.2478H18.3178L18.9889 16.1028L19.4104 16.5243C20.018 17.1319 21.0661 16.7032 21.0661 15.8385C21.0661 15.5795 20.9652 15.3359 20.782 15.1528L20.0025 14.3732L20.6827 13.2128C21.0207 12.636 21.8547 12.6353 22.1932 13.2128L24.5581 17.2479H23.0262C22.8564 17.2479 22.7186 17.3856 22.7186 17.5555C22.7186 17.7254 22.8564 17.8631 23.0262 17.8631H24.9187L25.7111 19.2151H24.6541C24.4564 18.8372 24.0591 18.586 23.6174 18.586C22.9722 18.586 22.4473 19.1109 22.4473 19.7561C22.4473 19.9735 22.5064 20.1821 22.6169 20.3634C22.5064 20.5447 22.4473 20.7533 22.4473 20.9707C22.4473 21.6159 22.9722 22.1408 23.6174 22.1408C24.0574 22.1408 24.4555 21.8912 24.6541 21.5117H26.0885C26.4416 22.0945 27.0483 22.5416 27.7909 22.7636L28.2155 23.488H18.8698C18.7 23.488 18.5622 23.6258 18.5622 23.7956C18.5622 23.9655 18.7 24.1033 18.8698 24.1033H28.576L30.5663 27.4992C31.1445 28.4857 30.434 29.7278 29.2892 29.7278Z" fill="#794C74"/>
</g>
<defs>
<clipPath id="clip0">
<rect width="21" height="21" fill="white" transform="translate(11 11)"/>
</clipPath>
</defs>
</svg>
