<svg width="60" height="60" viewBox="0 0 60 60" fill="none" xmlns="http://www.w3.org/2000/svg">
<path d="M30 60C46.5685 60 60 46.5685 60 30C60 13.4315 46.5685 0 30 0C13.4315 0 0 13.4315 0 30C0 46.5685 13.4315 60 30 60Z" fill="#FFCA28"/>
<path d="M23.7501 25.625C22.7151 25.625 21.8751 24.785 21.8751 23.75C21.8751 22.0275 20.4726 20.625 18.7501 20.625C17.0276 20.625 15.6251 22.0275 15.6251 23.75C15.6251 24.785 14.7851 25.625 13.7501 25.625C12.7151 25.625 11.8751 24.785 11.8751 23.75C11.8751 19.9575 14.9576 16.875 18.7501 16.875C22.5426 16.875 25.6251 19.9575 25.6251 23.75C25.6251 24.785 24.7851 25.625 23.7501 25.625Z" fill="#6D4C41"/>
<path d="M46.2501 25.625C45.2151 25.625 44.3751 24.785 44.3751 23.75C44.3751 22.0275 42.9726 20.625 41.2501 20.625C39.5276 20.625 38.1251 22.0275 38.1251 23.75C38.1251 24.785 37.2851 25.625 36.2501 25.625C35.2151 25.625 34.3751 24.785 34.3751 23.75C34.3751 19.9575 37.4576 16.875 41.2501 16.875C45.0426 16.875 48.1251 19.9575 48.1251 23.75C48.1251 24.785 47.2851 25.625 46.2501 25.625Z" fill="#6D4C41"/>
<path d="M30.0002 50.08C24.9927 50.08 19.9852 48.175 16.1752 44.3625C15.4427 43.63 15.4427 42.4425 16.1752 41.71C16.9077 40.9775 18.0952 40.9775 18.8277 41.71C21.8127 44.695 25.7802 46.34 30.0027 46.34C34.2252 46.34 38.1902 44.695 41.1777 41.71C41.9102 40.9775 43.0977 40.9775 43.8302 41.71C44.5627 42.4425 44.5627 43.63 43.8302 44.3625C40.0152 48.175 35.0077 50.08 30.0002 50.08Z" fill="#6D4C41"/>
</svg>
