<svg width="20" height="20" viewBox="0 0 20 20" fill="none" xmlns="http://www.w3.org/2000/svg">
<path d="M3.60175 5.85938L4.63956 18.3881C4.71397 19.2916 5.48358 20 6.39053 20H13.6095C14.5164 20 15.286 19.2916 15.3604 18.3881L16.3982 5.85938H3.60175ZM8.24217 17.0703C8.24217 17.3942 7.9801 17.6562 7.65624 17.6562C7.33237 17.6562 7.0703 17.3942 7.0703 17.0703V7.61719C7.0703 7.29332 7.33237 7.03125 7.65624 7.03125C7.9801 7.03125 8.24217 7.29332 8.24217 7.61719V17.0703ZM10.5859 17.0703C10.5859 17.3942 10.3239 17.6562 9.99999 17.6562C9.67612 17.6562 9.41405 17.3942 9.41405 17.0703V7.61719C9.41405 7.29332 9.67612 7.03125 9.99999 7.03125C10.3239 7.03125 10.5859 7.29332 10.5859 7.61719V17.0703ZM12.9297 17.0703C12.9297 17.3942 12.6676 17.6562 12.3437 17.6562C12.0199 17.6562 11.7578 17.3942 11.7578 17.0703V7.61719C11.7578 7.29332 12.0199 7.03125 12.3437 7.03125C12.6676 7.03125 12.9297 7.29332 12.9297 7.61719V17.0703Z" fill="white"/>
<path d="M15.8594 2.34375H12.9297V1.75781C12.9297 0.788516 12.1412 0 11.1719 0H8.82812C7.85883 0 7.07031 0.788516 7.07031 1.75781V2.34375H4.14062C3.1698 2.34375 2.38281 3.13074 2.38281 4.10156C2.38281 4.42516 2.64516 4.6875 2.96875 4.6875H17.0312C17.3548 4.6875 17.6172 4.42516 17.6172 4.10156C17.6172 3.13074 16.8302 2.34375 15.8594 2.34375ZM11.7578 2.34375H8.24219V1.75781C8.24219 1.43453 8.50484 1.17188 8.82812 1.17188H11.1719C11.4952 1.17188 11.7578 1.43453 11.7578 1.75781V2.34375Z" fill="white"/>
</svg>
