<svg width="28" height="28" viewBox="0 0 28 28" fill="none" xmlns="http://www.w3.org/2000/svg">
<g filter="url(#filter0_d)">
<path d="M23.7494 9.75807C24.112 9.34621 24.077 8.71494 23.6713 8.34847L14.733 0.269892C14.3273 -0.0965818 13.6769 -0.0889048 13.2797 0.287199L4.31106 8.77919C3.91389 9.15529 3.8944 9.78575 4.2679 10.1868L4.49275 10.4287C4.8658 10.8297 5.46878 10.8775 5.8387 10.5351L6.50896 9.91511V18.9922C6.50896 19.5491 6.94583 20 7.4846 20H10.9806C11.5194 20 11.9562 19.5491 11.9562 18.9922V12.6419H16.4154V18.9922C16.4077 19.5487 16.7932 19.9996 17.3319 19.9996H21.0368C21.5756 19.9996 22.0124 19.5487 22.0124 18.9918V10.0429C22.0124 10.0429 22.1976 10.2105 22.426 10.4178C22.654 10.6248 23.1328 10.4588 23.4954 10.0466L23.7494 9.75807Z" fill="#794C74"/>
</g>
<defs>
<filter id="filter0_d" x="0" y="0" width="28" height="28" filterUnits="userSpaceOnUse" color-interpolation-filters="sRGB">
<feFlood flood-opacity="0" result="BackgroundImageFix"/>
<feColorMatrix in="SourceAlpha" type="matrix" values="0 0 0 0 0 0 0 0 0 0 0 0 0 0 0 0 0 0 127 0"/>
<feOffset dy="4"/>
<feGaussianBlur stdDeviation="2"/>
<feColorMatrix type="matrix" values="0 0 0 0 0 0 0 0 0 0 0 0 0 0 0 0 0 0 0.25 0"/>
<feBlend mode="normal" in2="BackgroundImageFix" result="effect1_dropShadow"/>
<feBlend mode="normal" in="SourceGraphic" in2="effect1_dropShadow" result="shape"/>
</filter>
</defs>
</svg>
