<svg width="176" height="132" viewBox="0 0 176 132" fill="none" xmlns="http://www.w3.org/2000/svg">
<g clip-path="url(#clip0)">
<path d="M40.5256 91.3517L54.1521 70.4351L23.6351 51.4937L7.87531 75.6848L33.1167 91.3517H40.5256Z" fill="#F0F0F0"/>
<path d="M59.8356 97.8768H26.0822V91.2447H59.8356V97.8768ZM26.5206 97.4489H59.3973V91.6726H26.5206V97.4489Z" fill="#3F3D56"/>
<path d="M55.6712 96.7001C56.8817 96.7001 57.863 95.7423 57.863 94.5608C57.863 93.3792 56.8817 92.4214 55.6712 92.4214C54.4607 92.4214 53.4794 93.3792 53.4794 94.5608C53.4794 95.7423 54.4607 96.7001 55.6712 96.7001Z" fill="#794C74"/>
<path d="M49.5342 96.7001C50.7447 96.7001 51.726 95.7423 51.726 94.5608C51.726 93.3792 50.7447 92.4214 49.5342 92.4214C48.3238 92.4214 47.3425 93.3792 47.3425 94.5608C47.3425 95.7423 48.3238 96.7001 49.5342 96.7001Z" fill="#794C74"/>
<path d="M43.3972 96.7001C44.6077 96.7001 45.589 95.7423 45.589 94.5608C45.589 93.3792 44.6077 92.4214 43.3972 92.4214C42.1867 92.4214 41.2054 93.3792 41.2054 94.5608C41.2054 95.7423 42.1867 96.7001 43.3972 96.7001Z" fill="#794C74"/>
<path d="M37.2603 96.7001C38.4707 96.7001 39.452 95.7423 39.452 94.5608C39.452 93.3792 38.4707 92.4214 37.2603 92.4214C36.0498 92.4214 35.0685 93.3792 35.0685 94.5608C35.0685 95.7423 36.0498 96.7001 37.2603 96.7001Z" fill="#794C74"/>
<path d="M31.1233 96.7001C32.3338 96.7001 33.3151 95.7423 33.3151 94.5608C33.3151 93.3792 32.3338 92.4214 31.1233 92.4214C29.9128 92.4214 28.9315 93.3792 28.9315 94.5608C28.9315 95.7423 29.9128 96.7001 31.1233 96.7001Z" fill="#794C74"/>
<path d="M99.9452 24.175V7.91572H108.274V0H67.5068V39.7925H102.356V35.9019C102.356 35.1767 102.503 34.4585 102.787 33.7885C103.071 33.1185 103.488 32.5096 104.013 31.9968C104.539 31.484 105.162 31.0772 105.849 30.7996C106.535 30.5221 107.271 30.3793 108.014 30.3793H108.274V24.175H99.9452Z" fill="#F0F0F0"/>
<path d="M145.096 102.69H117.918V108.253H145.096V102.69Z" fill="#794C74"/>
<path d="M151.014 75.3063H111.123V80.4408H151.014V75.3063Z" fill="#F0F0F0"/>
<path d="M170.521 131.572H0V132H170.521V131.572Z" fill="#3F3D56"/>
<path d="M157.849 132H108.014C106.456 131.998 104.962 131.393 103.86 130.318C102.759 129.242 102.139 127.784 102.137 126.263V35.902C102.139 34.381 102.758 32.9229 103.86 31.8474C104.962 30.772 106.456 30.167 108.014 30.1653H157.849C159.407 30.167 160.901 30.772 162.003 31.8474C163.104 32.9229 163.724 34.381 163.726 35.902V126.263C163.724 127.784 163.104 129.242 162.003 130.318C160.901 131.393 159.407 131.998 157.849 132ZM108.014 30.5932C106.572 30.5948 105.19 31.1546 104.17 32.1499C103.15 33.1451 102.577 34.4945 102.575 35.902V126.263C102.577 127.671 103.15 129.02 104.17 130.015C105.19 131.011 106.572 131.571 108.014 131.572H157.849C159.291 131.571 160.673 131.011 161.693 130.015C162.712 129.02 163.286 127.671 163.288 126.263V35.902C163.286 34.4945 162.712 33.1451 161.693 32.1499C160.673 31.1546 159.291 30.5948 157.849 30.5932H108.014Z" fill="#3F3D56"/>
<path d="M127.014 34.4441C126.754 34.4441 126.499 34.3688 126.283 34.2278C126.067 34.0867 125.898 33.8862 125.799 33.6517C125.699 33.4171 125.673 33.159 125.724 32.91C125.775 32.661 125.9 32.4323 126.084 32.2528C126.268 32.0733 126.502 31.951 126.757 31.9015C127.012 31.852 127.277 31.8774 127.517 31.9745C127.757 32.0717 127.963 32.2362 128.107 32.4473C128.252 32.6584 128.329 32.9066 128.329 33.1605C128.328 33.5008 128.19 33.8271 127.943 34.0677C127.697 34.3084 127.362 34.4437 127.014 34.4441ZM127.014 32.3047C126.84 32.3047 126.671 32.3549 126.527 32.4489C126.382 32.543 126.27 32.6766 126.204 32.833C126.137 32.9893 126.12 33.1614 126.154 33.3274C126.188 33.4934 126.271 33.6459 126.394 33.7656C126.516 33.8853 126.673 33.9668 126.843 33.9998C127.013 34.0328 127.189 34.0158 127.349 33.9511C127.509 33.8863 127.646 33.7766 127.743 33.6359C127.839 33.4952 127.89 33.3297 127.89 33.1605C127.89 32.9336 127.798 32.7161 127.633 32.5556C127.469 32.3952 127.246 32.3049 127.014 32.3047Z" fill="#3F3D56"/>
<path d="M139.945 32.9465H130.301V33.3744H139.945V32.9465Z" fill="#3F3D56"/>
<path d="M159.781 36.3695V53.4846C155.13 53.4844 150.671 51.6812 147.382 48.4715C144.094 45.2618 142.247 40.9087 142.247 36.3695H159.781Z" fill="#794C74"/>
<path d="M160 126.224H105.863V36.1556H160V126.224ZM106.301 125.796H159.562V36.5835H106.301V125.796Z" fill="#3F3D56"/>
<path opacity="0.1" d="M147.068 52.4149C150.337 52.4149 152.986 49.8288 152.986 46.6386C152.986 43.4484 150.337 40.8622 147.068 40.8622C143.8 40.8622 141.151 43.4484 141.151 46.6386C141.151 49.8288 143.8 52.4149 147.068 52.4149Z" fill="black"/>
<path d="M146.192 53.0567C149.46 53.0567 152.11 50.4706 152.11 47.2804C152.11 44.0902 149.46 41.5041 146.192 41.5041C142.923 41.5041 140.274 44.0902 140.274 47.2804C140.274 50.4706 142.923 53.0567 146.192 53.0567Z" fill="#794C74"/>
<path d="M116.603 39.7925H108.274V42.7877H116.603V39.7925Z" fill="#3F3D56"/>
<path d="M121.206 68.2464H112.877V71.2415H121.206V68.2464Z" fill="#3F3D56"/>
<path d="M153.205 79.3712H112.877V73.8087H153.205V79.3712ZM113.315 78.9433H152.767V74.2366H113.315V78.9433Z" fill="#3F3D56"/>
<path d="M151.014 91.5656H111.123V96.7002H151.014V91.5656Z" fill="#F0F0F0"/>
<path d="M121.206 84.5057H112.877V87.5008H121.206V84.5057Z" fill="#3F3D56"/>
<path d="M153.205 95.6305H112.877V90.0681H153.205V95.6305ZM113.315 95.2026H152.767V90.4959H113.315V95.2026Z" fill="#3F3D56"/>
<path d="M146.849 106.969H119.233V100.979H146.849V106.969ZM119.671 106.541H146.411V101.407H119.671V106.541Z" fill="#3F3D56"/>
<path d="M152.11 77.2318C152.11 77.6722 151.97 78.1019 151.711 78.4622C151.451 78.8225 151.084 79.0958 150.66 79.2449C150.235 79.3939 149.774 79.4115 149.338 79.2951C148.903 79.1787 148.515 78.9341 148.228 78.5946L148.226 78.5924C148.016 78.3443 147.867 78.0534 147.788 77.7411C147.71 77.4288 147.705 77.1033 147.773 76.7888C147.841 76.4743 147.981 76.1788 148.182 75.9243C148.383 75.6698 148.641 75.4629 148.935 75.3189C149.23 75.1749 149.554 75.0976 149.883 75.0926C150.213 75.0877 150.539 75.1553 150.838 75.2904C151.137 75.4255 151.4 75.6246 151.61 75.8729C151.819 76.1212 151.968 76.4124 152.046 76.7247C152.046 76.725 152.046 76.7253 152.046 76.7256C152.046 76.7258 152.046 76.7261 152.047 76.7263C152.047 76.7265 152.047 76.7266 152.047 76.7267C152.048 76.7268 152.048 76.7269 152.048 76.7269C152.089 76.8923 152.109 77.0617 152.11 77.2318Z" fill="#794C74"/>
<path opacity="0.1" d="M152.11 77.2318C152.11 77.6722 151.97 78.1019 151.711 78.4622C151.451 78.8225 151.084 79.0958 150.659 79.2449C150.235 79.3939 149.774 79.4115 149.338 79.2951C148.903 79.1787 148.515 78.9341 148.228 78.5946L148.226 78.5924C148.185 78.427 148.165 78.2576 148.164 78.0875C148.164 77.6471 148.304 77.2174 148.563 76.8571C148.823 76.4968 149.19 76.2235 149.614 76.0744C150.039 75.9253 150.5 75.9078 150.936 76.0242C151.371 76.1406 151.759 76.3852 152.046 76.7247C152.046 76.725 152.046 76.7253 152.046 76.7256C152.046 76.7258 152.046 76.7261 152.047 76.7263C152.047 76.7265 152.047 76.7266 152.047 76.7267C152.048 76.7268 152.048 76.7269 152.048 76.7269C152.089 76.8923 152.109 77.0617 152.11 77.2318Z" fill="black"/>
<path d="M150.794 80.6548C152.005 80.6548 152.986 79.697 152.986 78.5154C152.986 77.3338 152.005 76.376 150.794 76.376C149.584 76.376 148.603 77.3338 148.603 78.5154C148.603 79.697 149.584 80.6548 150.794 80.6548Z" fill="#794C74"/>
<path d="M152.11 93.4911C152.11 93.9315 151.97 94.3612 151.711 94.7215C151.451 95.0818 151.084 95.3551 150.66 95.5042C150.235 95.6533 149.774 95.6708 149.338 95.5544C148.903 95.438 148.515 95.1934 148.228 94.8539L148.226 94.8517C148.016 94.6037 147.867 94.3127 147.788 94.0004C147.71 93.6882 147.705 93.3627 147.773 93.0481C147.841 92.7336 147.981 92.4381 148.182 92.1836C148.383 91.9291 148.641 91.7222 148.935 91.5782C149.23 91.4342 149.554 91.3569 149.883 91.352C150.213 91.347 150.539 91.4146 150.838 91.5497C151.137 91.6848 151.4 91.8839 151.61 92.1322C151.819 92.3805 151.968 92.6717 152.046 92.9841C152.046 92.9843 152.046 92.9846 152.046 92.9849C152.046 92.9851 152.046 92.9854 152.047 92.9856C152.047 92.9858 152.047 92.9859 152.047 92.986C152.048 92.9861 152.048 92.9862 152.048 92.9862C152.089 93.1516 152.109 93.321 152.11 93.4911Z" fill="#794C74"/>
<path opacity="0.1" d="M152.11 93.4911C152.11 93.9315 151.97 94.3612 151.711 94.7215C151.451 95.0818 151.084 95.3551 150.659 95.5042C150.235 95.6533 149.774 95.6708 149.338 95.5544C148.903 95.438 148.515 95.1934 148.228 94.8539L148.226 94.8517C148.185 94.6863 148.165 94.5169 148.164 94.3468C148.164 93.9064 148.304 93.4767 148.563 93.1164C148.823 92.7561 149.19 92.4828 149.614 92.3337C150.039 92.1847 150.5 92.1671 150.936 92.2835C151.371 92.3999 151.759 92.6446 152.046 92.9841C152.046 92.9843 152.046 92.9846 152.046 92.9849C152.046 92.9851 152.046 92.9854 152.047 92.9856C152.047 92.9858 152.047 92.9859 152.047 92.986C152.048 92.9861 152.048 92.9862 152.048 92.9862C152.089 93.1516 152.109 93.321 152.11 93.4911Z" fill="black"/>
<path d="M150.794 96.9141C152.005 96.9141 152.986 95.9563 152.986 94.7747C152.986 93.5932 152.005 92.6353 150.794 92.6353C149.584 92.6353 148.603 93.5932 148.603 94.7747C148.603 95.9563 149.584 96.9141 150.794 96.9141Z" fill="#794C74"/>
<path d="M113.973 10.269H102.575V21.3938H113.973V10.269Z" fill="#F0F0F0"/>
<path d="M147.068 18.3987C146.548 18.3987 146.04 18.2481 145.607 17.966C145.175 17.6839 144.838 17.283 144.639 16.8139C144.439 16.3448 144.387 15.8286 144.489 15.3306C144.59 14.8326 144.841 14.3751 145.209 14.0161C145.577 13.6571 146.045 13.4126 146.555 13.3135C147.066 13.2144 147.594 13.2653 148.075 13.4596C148.556 13.6539 148.966 13.983 149.255 14.4051C149.544 14.8273 149.699 15.3237 149.699 15.8314C149.698 16.5121 149.42 17.1646 148.927 17.6459C148.434 18.1272 147.766 18.3979 147.068 18.3987ZM147.068 13.6921C146.635 13.6921 146.211 13.8175 145.851 14.0526C145.49 14.2877 145.209 14.6218 145.044 15.0127C144.878 15.4037 144.834 15.8338 144.919 16.2488C145.003 16.6638 145.212 17.045 145.519 17.3442C145.825 17.6434 146.216 17.8472 146.641 17.9297C147.066 18.0123 147.507 17.9699 147.907 17.808C148.308 17.646 148.65 17.3718 148.891 17.02C149.132 16.6682 149.26 16.2546 149.26 15.8314C149.26 15.2642 149.028 14.7205 148.618 14.3194C148.207 13.9183 147.65 13.6927 147.068 13.6921Z" fill="#3F3D56"/>
<path d="M89.2055 54.1264H83.5068V48.564H89.2055V54.1264ZM83.9452 53.6985H88.7671V48.9919H83.9452V53.6985Z" fill="#3F3D56"/>
<path d="M176 95.6305H170.301V90.0681H176V95.6305ZM170.74 95.2026H175.562V90.4959H170.74V95.2026Z" fill="#3F3D56"/>
<path d="M63.5622 58.3338L64.5401 58.848L67.8677 60.5985L73.2398 63.4237L76.3705 57.754C76.6654 57.2213 76.8497 56.6371 76.913 56.0347C76.9762 55.4324 76.9171 54.8238 76.7391 54.2438C76.5611 53.6637 76.2676 53.1237 75.8755 52.6545C75.4834 52.1853 75.0004 51.7962 74.4541 51.5094C73.2865 50.894 71.9489 50.6562 70.6341 50.8304C69.3192 51.0045 68.0949 51.5816 67.1376 52.4784L67.1359 52.48C66.6649 52.9215 66.2674 53.4322 65.9578 53.9935L63.5622 58.3338Z" fill="#2F2E41"/>
<path d="M78.2247 116.155L77.5684 123.202L75.1071 123.522L73.4663 115.514L78.2247 116.155Z" fill="#FFB8B8"/>
<path d="M74.4508 123.522C74.4508 123.522 77.5683 121.921 78.2247 123.202C78.2247 123.202 77.7324 127.046 79.7014 127.526C81.6704 128.007 82.4908 131.37 79.7014 131.691C76.912 132.011 75.1071 131.05 74.1226 131.05C73.1381 131.05 74.1226 127.687 74.1226 127.687L74.4508 123.522Z" fill="#2F2E41"/>
<path d="M58.3706 116.155L59.027 123.202L61.4882 123.522L63.129 115.514L58.3706 116.155Z" fill="#FFB8B8"/>
<path d="M62.1446 123.522C62.1446 123.522 59.027 121.921 58.3707 123.202C58.3707 123.202 58.8629 127.046 56.8939 127.526C54.9249 128.007 54.1045 131.37 56.8939 131.691C59.6833 132.011 61.4882 131.05 62.4727 131.05C63.4572 131.05 62.4727 127.687 62.4727 127.687L62.1446 123.522Z" fill="#2F2E41"/>
<path d="M71.8254 59.6183C74.1816 59.6183 76.0916 57.754 76.0916 55.4541C76.0916 53.1543 74.1816 51.29 71.8254 51.29C69.4693 51.29 67.5593 53.1543 67.5593 55.4541C67.5593 57.754 69.4693 59.6183 71.8254 59.6183Z" fill="#FFB8B8"/>
<path d="M58.2065 63.6223L61.6523 68.9076L65.7544 68.5873L72.4818 69.0678C72.4818 69.0678 73.1168 67.8282 73.6353 66.6221C73.9192 66.0199 74.1375 65.3902 74.2867 64.7435C74.4508 63.6223 72.1536 62.5012 72.1536 62.5012C72.1536 62.5012 72.0633 62.4852 71.9124 62.45C71.7122 62.4035 71.4037 62.3266 71.0657 62.2145C70.3027 61.9615 69.3855 61.5322 69.2001 60.8996C68.8719 59.7785 71.3332 58.1769 71.3332 58.1769L68.3797 55.4541C68.3797 55.4541 65.756 59.0113 62.5695 59.8217C62.3848 59.8694 62.1974 59.9068 62.0083 59.9338C61.9985 59.9354 61.9903 59.937 61.9804 59.9386C58.5347 60.4191 58.2065 63.6223 58.2065 63.6223Z" fill="#FFB8B8"/>
<path d="M60.0115 62.1809L58.2066 63.6223C58.2066 63.6223 56.7298 70.5092 57.2221 72.4312C57.7143 74.3531 57.058 76.1148 57.058 76.4352C57.058 76.7555 55.5812 88.7675 55.5812 88.7675C55.5812 88.7675 52.6277 95.174 55.7453 94.5333C58.8629 93.8927 57.7143 87.4862 57.7143 87.4862L61.4882 76.275V66.8255L60.0115 62.1809Z" fill="#FFB8B8"/>
<path d="M72.974 63.4622L74.2867 64.4231L74.943 77.8766L79.8655 89.4082C79.8655 89.4082 83.4753 95.0138 81.1781 95.1739C78.881 95.3341 77.4043 89.4082 77.4043 89.4082L72.974 78.3571L72.3177 67.6263L72.974 63.4622Z" fill="#FFB8B8"/>
<path d="M64.7699 64.4231C64.7699 64.4231 68.0515 66.6654 73.3022 65.8646C73.3022 65.8646 74.7789 68.7475 73.9585 70.3491C73.1381 71.9507 74.943 75.7945 75.2712 76.275C75.5993 76.7555 79.3732 86.6854 80.6859 97.4162C81.9986 108.147 85.6084 115.514 82.4908 116.475C79.3732 117.436 72.974 118.557 72.3177 117.596C71.6613 116.635 70.6768 92.7715 70.6768 92.7715L68.8719 101.901C68.8719 101.901 71.3332 117.436 69.5282 117.757C67.7233 118.077 56.4016 117.116 56.7298 115.194C57.0579 113.272 60.3396 103.182 60.3396 103.182C60.3396 103.182 60.1755 83.0017 63.4572 79.1579C63.4572 79.1579 64.7698 77.0758 62.9649 74.3531C61.16 71.6304 61.3241 67.306 61.3241 67.306C61.3241 67.306 62.6368 67.306 64.7699 64.4231Z" fill="#2F2E41"/>
<path d="M62.0084 59.9338L64.77 65.8646L65.4262 65.5443L62.5695 59.8217L62.0084 59.9338Z" fill="#2F2E41"/>
<path d="M71.0657 62.2145L73.1381 66.6654L73.6353 66.6221L73.4663 65.8646L71.9124 62.4499C71.7122 62.4035 71.4037 62.3266 71.0657 62.2145Z" fill="#2F2E41"/>
<path d="M64.5401 58.8479C64.6979 59.3434 65.002 59.7824 65.4142 60.11C65.8265 60.4375 66.3286 60.6391 66.8576 60.6893C67.3867 60.7396 67.9192 60.6364 68.3884 60.3926C68.8576 60.1488 69.2427 59.7753 69.4954 59.3188C67.4198 56.6698 69.2001 55.0057 72.572 53.7468C72.826 53.2867 72.934 52.7632 72.8823 52.243C72.8305 51.7228 72.6214 51.2294 72.2816 50.8255C71.3522 50.7095 70.4079 50.7977 69.5179 51.0837C68.6279 51.3696 67.8146 51.8462 67.1376 52.4784L67.1359 52.48L64.7403 56.8171C64.5697 57.1254 64.4641 57.464 64.4297 57.8128C64.3953 58.1616 64.4329 58.5135 64.5401 58.8479Z" fill="#2F2E41"/>
<path d="M69.2822 56.8956C69.5993 56.8956 69.8565 56.4653 69.8565 55.9346C69.8565 55.4039 69.5993 54.9737 69.2822 54.9737C68.965 54.9737 68.7079 55.4039 68.7079 55.9346C68.7079 56.4653 68.965 56.8956 69.2822 56.8956Z" fill="#FFB8B8"/>
<path d="M70.9935 54.3667L75.9259 56.548L76.83 54.6005C76.6742 53.8887 76.3481 53.223 75.8783 52.6577L72.4834 51.157L70.9935 54.3667Z" fill="#2F2E41"/>
<path d="M82.8493 97.342C84.0598 97.342 85.0411 96.3841 85.0411 95.2026C85.0411 94.021 84.0598 93.0632 82.8493 93.0632C81.6388 93.0632 80.6575 94.021 80.6575 95.2026C80.6575 96.3841 81.6388 97.342 82.8493 97.342Z" fill="#794C74"/>
<path d="M12.4836 110.06C13.2747 110.06 13.916 109.434 13.916 108.662C13.916 107.89 13.2747 107.264 12.4836 107.264C11.6925 107.264 11.0512 107.89 11.0512 108.662C11.0512 109.434 11.6925 110.06 12.4836 110.06Z" fill="#FF6584"/>
<path d="M19.7206 115.949H19.2822V131.868H19.7206V115.949Z" fill="#3F3D56"/>
<path d="M19.5014 118.2C20.7752 118.2 21.8078 117.192 21.8078 115.949C21.8078 114.705 20.7752 113.697 19.5014 113.697C18.2277 113.697 17.1951 114.705 17.1951 115.949C17.1951 117.192 18.2277 118.2 19.5014 118.2Z" fill="#3F3D56"/>
<path d="M19.5014 125.76C19.5014 125.76 19.1719 118.843 12.4175 119.647L19.5014 125.76Z" fill="#3F3D56"/>
</g>
<defs>
<clipPath id="clip0">
<rect width="176" height="132" fill="white"/>
</clipPath>
</defs>
</svg>
