<svg width="214" height="134" viewBox="0 0 214 134" fill="none" xmlns="http://www.w3.org/2000/svg">
<path d="M35.8012 87.7033C35.8012 87.7033 38.405 91.6575 37.4751 92.7281C36.5452 93.7987 44.4517 93.8255 44.4517 93.8255C44.4517 93.8255 43.2641 88.0734 43.6136 86.7496L35.8012 87.7033Z" fill="#FFB8B8"/>
<path d="M39.9625 89.1363C44.4717 89.1363 48.1271 85.6363 48.1271 81.3188C48.1271 77.0012 44.4717 73.5012 39.9625 73.5012C35.4532 73.5012 31.7978 77.0012 31.7978 81.3188C31.7978 85.6363 35.4532 89.1363 39.9625 89.1363Z" fill="#2F2E41"/>
<path d="M59.1657 123.692V128.327L64.0058 127.361L63.6026 124.079L59.1657 123.692Z" fill="#FFB8B8"/>
<path d="M76.308 124.465L89.8201 126.589L86.3917 131.416C86.3917 131.416 76.913 128.327 74.4929 128.327C72.0728 128.327 76.308 124.465 76.308 124.465Z" fill="#FFB8B8"/>
<path d="M45.6535 115.196C45.6535 115.196 55.7372 103.996 58.964 104.575C62.1908 105.155 63.6025 108.63 63.6025 108.63L65.4176 125.816C65.4176 125.816 58.964 126.396 58.964 125.816C58.964 125.237 57.754 112.879 57.754 112.879C57.754 112.879 48.2753 132.961 43.2335 119.637L45.6535 115.196Z" fill="#D0CDE1"/>
<path d="M29.3179 122.727C29.3179 122.727 29.5196 132.843 35.5698 133.423C41.62 134.002 48.2753 129.099 48.2753 129.099L59.1657 124.104C59.1657 124.104 72.0728 130.644 75.9046 128.906C75.9046 128.906 79.9381 124.851 77.3163 123.692C74.6946 122.534 77.1146 123.692 77.1146 123.692L61.5857 115.968C61.5857 115.968 58.5606 115.196 53.3171 117.32C48.0736 119.444 41.015 120.41 41.015 120.41L29.3179 122.727Z" fill="#D0CDE1"/>
<path d="M39.4017 89.7065C42.7431 89.7065 45.4519 87.1129 45.4519 83.9135C45.4519 80.7141 42.7431 78.1204 39.4017 78.1204C36.0602 78.1204 33.3514 80.7141 33.3514 83.9135C33.3514 87.1129 36.0602 89.7065 39.4017 89.7065Z" fill="#FFB8B8"/>
<path d="M48.0737 100.134L47.6703 108.244C47.6703 108.244 47.872 118.865 46.0569 119.637C45.1393 120.027 43.296 120.811 41.5919 121.669C40.3133 122.31 39.1133 122.989 38.4437 123.574C38.2662 123.719 38.1132 123.889 37.99 124.078C37.1833 125.43 31.9397 125.237 30.7297 124.272C29.5197 123.306 30.3264 125.43 29.318 125.816C28.3419 126.191 26.9886 123.128 27.8175 118.556C27.8437 118.403 27.874 118.249 27.9063 118.092C28.8319 113.661 27.3779 103.046 27.6017 98.9444C27.6148 98.6311 27.6491 98.3189 27.7046 98.0098C28.3096 94.9202 36.0297 88.6328 37.4737 91.3111C39.2524 94.617 43.3384 91.5969 44.0402 90.0927C48.0737 89.8996 49.4854 94.534 49.4854 94.534L48.0737 100.134Z" fill="#794C74"/>
<path d="M64.4092 126.589C64.4092 126.589 61.1825 127.747 60.1741 127.554C59.1657 127.361 58.1574 128.134 58.1574 129.292C58.1574 130.451 56.9473 133.154 58.7624 133.347C60.5774 133.54 68.0394 133.154 69.6528 133.733C69.6528 133.733 76.913 133.927 76.308 131.03C75.703 128.134 72.6779 128.327 72.6779 128.327C72.6779 128.327 64.4092 127.94 64.4092 126.589Z" fill="#2F2E41"/>
<path d="M88.0051 127.168C88.0051 127.168 88.4084 126.009 89.0134 126.009C89.6185 126.009 94.4586 126.782 95.0637 126.589C95.6687 126.396 102.727 126.009 101.517 129.292C100.307 132.575 96.2737 132.961 96.2737 132.961C96.2737 132.961 89.0134 132.189 88.0051 132.382C86.9967 132.575 83.3666 132.382 83.9716 131.416C84.5766 130.451 88.4084 128.713 88.0051 127.168Z" fill="#2F2E41"/>
<path d="M69.6475 99.4317L70.7539 103.802C70.7663 103.85 70.7644 103.901 70.7484 103.949L65.7295 118.967C65.7096 119.026 65.669 119.077 65.6145 119.112C65.56 119.146 65.4949 119.161 65.43 119.155C65.3651 119.149 65.3043 119.122 65.2579 119.078C65.2114 119.034 65.1821 118.976 65.1747 118.914L64.4804 113.064C64.4758 113.025 64.4799 112.986 64.4926 112.949L69.0994 99.4115C69.1187 99.355 69.1566 99.306 69.2075 99.2721C69.2584 99.2381 69.3195 99.221 69.3815 99.2233C69.4435 99.2256 69.503 99.2472 69.551 99.2848C69.599 99.3224 69.6329 99.374 69.6475 99.4317Z" fill="#3F3D56"/>
<path d="M69.2406 99.8007L70.2621 103.55L65.8353 117.244L64.8138 113.005L69.2406 99.8007Z" fill="white"/>
<path d="M46.9372 120.178C47.1075 120.667 64.6437 120.015 64.8139 119.852C64.9624 119.648 65.0879 119.429 65.1885 119.2C65.3485 118.874 65.4949 118.548 65.4949 118.548L64.8139 113.269L47.448 112.679C47.448 112.679 47.0138 117.152 46.9253 119.2C46.8952 119.525 46.8991 119.853 46.9372 120.178Z" fill="#3F3D56"/>
<path opacity="0.1" d="M62.6005 113.983L62.9411 118.548H55.2797V113.983H62.6005Z" fill="black"/>
<path opacity="0.1" d="M52.7259 115.45L52.7717 115.442L52.5555 117.406H48.2992V115.45H52.7259Z" fill="black"/>
<path opacity="0.1" d="M46.9372 120.178C47.1075 120.667 64.6436 120.015 64.8139 119.852C64.9623 119.648 65.0879 119.429 65.1884 119.2H46.9253C46.8951 119.525 46.8991 119.853 46.9372 120.178Z" fill="black"/>
<path d="M41.3152 74.9513C42.5718 74.9513 43.5906 73.9759 43.5906 72.7726C43.5906 71.5694 42.5718 70.5939 41.3152 70.5939C40.0585 70.5939 39.0398 71.5694 39.0398 72.7726C39.0398 73.9759 40.0585 74.9513 41.3152 74.9513Z" fill="#2F2E41"/>
<path d="M40.6309 75.1441C40.6309 75.1441 38.3062 78.8466 32.9003 80.2326C27.4945 81.6186 32.8562 89.3968 32.8562 89.3968C32.8562 89.3968 30.9065 86.5683 33.7187 83.573C36.5308 80.5776 41.0564 78.5297 40.6309 75.1441Z" fill="#2F2E41"/>
<path opacity="0.1" d="M41.5918 121.669C41.0937 122.57 40.5089 123.507 40.41 123.885C40.3435 124.142 39.6054 123.994 38.4437 123.574C36.1144 122.731 32.0769 120.798 28.3096 118.865C28.1359 118.777 27.9712 118.673 27.8175 118.556C27.8437 118.403 27.874 118.249 27.9063 118.092C28.8319 113.661 27.3779 103.046 27.6017 98.9444L29.318 98.396L32.7464 101.486V114.617C32.7464 114.617 41.6201 119.251 42.2251 119.637C42.5337 119.834 42.1081 120.732 41.5918 121.669Z" fill="black"/>
<path d="M49.082 111.141L54.5272 113.844C54.5272 113.844 57.754 110.561 59.7707 113.072C61.7874 115.582 53.9222 116.354 53.9222 116.354C53.9222 116.354 47.0653 114.81 46.8636 112.686C46.6619 110.561 49.082 111.141 49.082 111.141Z" fill="#FFB8B8"/>
<path d="M40.0067 118.285L43.2334 119.058C43.2334 119.058 46.8636 114.81 50.6954 116.354C54.5272 117.899 45.8552 120.989 45.8552 120.989C45.8552 120.989 41.2167 123.306 39.4016 121.375C37.5866 119.444 40.0067 118.285 40.0067 118.285Z" fill="#FFB8B8"/>
<path d="M47.0653 92.7961C47.2669 92.9892 49.4854 94.534 49.4854 94.534C49.4854 94.534 50.0904 101.872 49.2837 103.417C48.477 104.961 47.872 104.961 48.477 105.734C49.082 106.506 49.8887 105.927 49.082 107.279C48.2753 108.63 47.4686 108.437 48.0736 109.017C48.6787 109.596 48.477 109.789 48.477 109.789L50.8971 111.72C50.8971 111.72 49.4123 113.984 47.5329 113.818C45.6536 113.651 44.0402 104.961 44.0402 104.961L47.0653 92.7961Z" fill="#794C74"/>
<path d="M29.318 97.4305L27.5029 98.0098C27.5029 98.0098 22.6627 115.003 28.3096 117.899C33.9565 120.796 40.2084 123.692 40.4101 122.92C40.6117 122.147 42.8302 119.058 42.2251 118.672C41.6201 118.285 32.7464 113.651 32.7464 113.651V100.52L29.318 97.4305Z" fill="#794C74"/>
<path opacity="0.1" d="M32.0404 104.479L31.6373 113.747L42.3259 118.575L32.4439 113.747L32.0404 104.479Z" fill="black"/>
<path d="M187.587 30.8647V46.0201C187.587 46.1601 187.529 46.2943 187.425 46.3933C187.322 46.4924 187.182 46.5481 187.035 46.5485H186.643V125.499C186.643 127.683 185.736 129.778 184.123 131.323C182.509 132.868 180.321 133.736 178.039 133.736H126.518C125.388 133.736 124.27 133.523 123.226 133.109C122.182 132.695 121.234 132.088 120.435 131.323C119.637 130.558 119.003 129.65 118.571 128.651C118.139 127.651 117.917 126.58 117.917 125.499V49.3175H117.632C117.529 49.3176 117.43 49.2786 117.357 49.209C117.284 49.1393 117.243 49.0448 117.242 48.946V40.3207C117.242 40.2716 117.252 40.223 117.272 40.1776C117.291 40.1323 117.32 40.091 117.356 40.0563C117.393 40.0216 117.436 39.9941 117.483 39.9753C117.53 39.9565 117.581 39.9468 117.632 39.9469H117.917V36.698H117.63C117.522 36.6976 117.418 36.656 117.342 36.5825C117.265 36.5089 117.223 36.4094 117.223 36.3057V27.7981C117.223 27.6947 117.266 27.5957 117.342 27.5226C117.419 27.4495 117.522 27.4084 117.63 27.4081H117.917V22.9731H117.625C117.578 22.9732 117.531 22.9643 117.487 22.9469C117.443 22.9295 117.403 22.9041 117.369 22.8719C117.336 22.8397 117.309 22.8016 117.291 22.7595C117.273 22.7175 117.264 22.6725 117.264 22.627V17.9844C117.264 17.8923 117.301 17.8039 117.369 17.7386C117.437 17.6733 117.529 17.6364 117.625 17.636H117.917V8.23535C117.917 6.05122 118.823 3.95657 120.436 2.41216C122.049 0.867755 124.237 7.95518e-05 126.518 0H178.039C180.321 -9.87398e-06 182.509 0.867563 184.122 2.41193C185.735 3.95629 186.642 6.05098 186.643 8.23535V30.3363H187.035C187.182 30.3366 187.322 30.3924 187.425 30.4914C187.529 30.5905 187.587 30.7246 187.587 30.8647Z" fill="#3F3D56"/>
<path d="M154.761 4.22424H146.389C146.051 4.22424 145.776 4.48684 145.776 4.81078V5.50363C145.776 5.82756 146.051 6.09016 146.389 6.09016H154.761C155.099 6.09016 155.373 5.82756 155.373 5.50363V4.81078C155.373 4.48684 155.099 4.22424 154.761 4.22424Z" fill="#E6E8EC"/>
<path d="M157.93 6.21556C158.54 6.21556 159.035 5.74171 159.035 5.1572C159.035 4.57269 158.54 4.09885 157.93 4.09885C157.319 4.09885 156.824 4.57269 156.824 5.1572C156.824 5.74171 157.319 6.21556 157.93 6.21556Z" fill="#E6E8EC"/>
<path d="M182.523 9.86438V126.181C182.522 127.567 181.947 128.896 180.923 129.876C179.9 130.855 178.512 131.406 177.064 131.406H127.746C127.029 131.407 126.319 131.272 125.656 131.01C124.993 130.748 124.391 130.364 123.884 129.878C123.377 129.393 122.975 128.817 122.701 128.182C122.427 127.548 122.286 126.868 122.287 126.181V9.86438C122.287 9.17803 122.428 8.4984 122.703 7.86429C122.977 7.23018 123.379 6.65401 123.886 6.16869C124.393 5.68337 124.994 5.29839 125.657 5.03575C126.319 4.77311 127.029 4.63794 127.746 4.63797H135.127V5.5448C135.127 6.68614 135.601 7.78073 136.444 8.58778C137.286 9.39482 138.43 9.84822 139.622 9.84823H164.704C165.896 9.84823 167.039 9.39483 167.882 8.58778C168.725 7.78073 169.199 6.68614 169.199 5.5448V4.63797H177.064C177.781 4.63775 178.491 4.77278 179.154 5.03535C179.816 5.29793 180.418 5.68289 180.925 6.16825C181.432 6.65362 181.834 7.22986 182.108 7.86406C182.382 8.49826 182.523 9.17798 182.523 9.86438Z" fill="white"/>
<path d="M177.569 81.2133H127.443V87.4435H177.569V81.2133Z" fill="#E6E6E6"/>
<path d="M177.569 92.2892H127.443V98.5193H177.569V92.2892Z" fill="#E6E6E6"/>
<path d="M177.569 103.365H127.443V109.595H177.569V103.365Z" fill="#E6E6E6"/>
<path d="M172.026 25.6034C174.688 25.6034 176.846 23.5372 176.846 20.9885C176.846 18.4397 174.688 16.3735 172.026 16.3735C169.364 16.3735 167.206 18.4397 167.206 20.9885C167.206 23.5372 169.364 25.6034 172.026 25.6034Z" fill="#794C74"/>
<path d="M177.468 36.4485H127.342V68.2915H177.468V36.4485Z" fill="#E6E6E6"/>
<path d="M147.302 54.3523C148.766 59.5326 153.779 62.7409 153.779 62.7409C153.779 62.7409 156.419 57.5502 154.955 52.37C153.492 47.1897 148.479 43.9814 148.479 43.9814C148.479 43.9814 145.839 49.172 147.302 54.3523Z" fill="#3F3D56"/>
<path d="M149.453 53.239C153.469 56.9823 153.959 62.7366 153.959 62.7366C153.959 62.7366 147.939 62.4219 143.923 58.6786C139.906 54.9353 139.416 49.181 139.416 49.181C139.416 49.181 145.437 49.4957 149.453 53.239Z" fill="#794C74"/>
<path d="M160.617 54.3523C159.153 59.5326 154.14 62.7409 154.14 62.7409C154.14 62.7409 151.5 57.5502 152.963 52.37C154.427 47.1897 159.44 43.9814 159.44 43.9814C159.44 43.9814 162.08 49.172 160.617 54.3523Z" fill="#3F3D56"/>
<path d="M158.466 53.239C154.45 56.9823 153.959 62.7366 153.959 62.7366C153.959 62.7366 159.98 62.4219 163.996 58.6786C168.012 54.9353 168.503 49.181 168.503 49.181C168.503 49.181 162.482 49.4957 158.466 53.239Z" fill="#794C74"/>
<path d="M214 133.483H0V134H214V133.483Z" fill="#3F3D56"/>
</svg>
