<svg width="9" height="13" viewBox="0 0 9 13" fill="none" xmlns="http://www.w3.org/2000/svg">
<path d="M8.11129 5.99274L2.32613 0.207681C2.19233 0.0737718 2.01371 0 1.82326 0C1.6328 0 1.45419 0.0737718 1.32038 0.207681L0.894346 0.633613C0.617121 0.911155 0.617121 1.36224 0.894346 1.63936L5.75229 6.4973L0.888956 11.3606C0.755152 11.4945 0.681274 11.6731 0.681274 11.8634C0.681274 12.054 0.755152 12.2325 0.888956 12.3665L1.31499 12.7923C1.4489 12.9262 1.62741 13 1.81787 13C2.00832 13 2.18694 12.9262 2.32074 12.7923L8.11129 7.00198C8.24542 6.86764 8.31908 6.68829 8.31866 6.49762C8.31908 6.30622 8.24542 6.12697 8.11129 5.99274Z" fill="#794C74"/>
</svg>
