<svg width="223" height="174" viewBox="0 0 223 174" fill="none" xmlns="http://www.w3.org/2000/svg">
<g clip-path="url(#clip0)">
<path opacity="0.1" d="M70.4089 6.14053C76.4647 0.753343 85.9737 -0.337338 94.6423 0.0765828C121.847 1.42597 146.405 14.5224 167.647 29.3387C175.339 34.7011 182.909 40.4815 187.9 47.8679C198.069 62.9036 195.048 83.7321 180.919 96.1187C176.111 100.332 170.283 103.569 164.3 106.427C153.662 111.519 142.183 115.606 130.109 116.775C121.501 117.603 112.785 116.931 104.224 115.774C80.3102 112.539 56.8364 105.386 37.1604 93.1509C28.5313 87.7844 20.394 81.112 16.8411 72.43C13.2882 63.748 15.5606 52.746 24.3724 47.6071C28.0166 45.4817 32.3748 44.5214 36.6395 43.619C42.9194 42.2924 49.2989 40.9844 54.9645 38.2877C60.8189 35.502 67.7484 30.1148 66.5862 23.9474C65.3452 17.3309 64.349 11.5215 70.4089 6.14053Z" fill="#794C74"/>
<path opacity="0.1" d="M95.6571 171.897C110.917 171.897 123.288 168.035 123.288 163.271C123.288 158.507 110.917 154.645 95.6571 154.645C80.3971 154.645 68.0265 158.507 68.0265 163.271C68.0265 168.035 80.3971 171.897 95.6571 171.897Z" fill="#794C74"/>
<path d="M152.317 74.5555L153.32 127.686L155.451 127.937L154.648 74.3444L152.317 74.5555Z" fill="#F5C5CC"/>
<path d="M147.164 73.5558L148.167 126.687L150.298 126.937L149.495 73.3447L147.164 73.5558Z" fill="#F5C5CC"/>
<path d="M148.424 70.7784L148.528 128.727L150.707 128.52L149.877 69.6402L148.424 70.7784Z" fill="#CC929B"/>
<path d="M88.3167 61.103L89.236 109.265L91.3673 109.488L90.6493 60.9085L88.3167 61.103Z" fill="#F5C5CC"/>
<path d="M89.5474 60.2028L90.6016 110.329L91.3674 109.488L90.6493 60.9085L89.5474 60.2028Z" fill="#CC929B"/>
<path d="M92.8513 62.322L93.7707 110.482L95.902 110.705L95.184 62.1275L92.8513 62.322Z" fill="#F5C5CC"/>
<path d="M94.082 61.4197L95.1384 111.546L95.9021 110.705L95.184 62.1275L94.082 61.4197Z" fill="#CC929B"/>
<path d="M97.2842 63.6424L98.2035 111.804L100.335 112.028L99.6168 63.45L97.2842 63.6424Z" fill="#F5C5CC"/>
<path d="M98.5149 62.7442L99.5712 112.868L100.335 112.028L99.6169 63.45L98.5149 62.7442Z" fill="#CC929B"/>
<path d="M101.597 63.9115L102.543 113.764L104.674 113.996L103.927 63.7128L101.597 63.9115Z" fill="#F5C5CC"/>
<path d="M102.825 62.9802L103.911 114.865L104.674 113.996L103.927 63.7128L102.825 62.9802Z" fill="#CC929B"/>
<path d="M106.272 64.3006L107.221 114.151L109.352 114.383L108.605 64.0998L106.272 64.3006Z" fill="#F5C5CC"/>
<path d="M107.503 63.3692L108.588 115.252L109.352 114.383L108.605 64.0998L107.503 63.3692Z" fill="#CC929B"/>
<path d="M110.867 65.9294L111.813 115.782L113.945 116.014L113.2 65.7307L110.867 65.9294Z" fill="#F5C5CC"/>
<path d="M112.096 64.998L113.181 116.883L113.945 116.014L113.2 65.7307L112.096 64.998Z" fill="#CC929B"/>
<path d="M116.126 67.0055L117.097 118.249L119.228 118.487L118.459 66.8007L116.126 67.0055Z" fill="#F5C5CC"/>
<path d="M117.354 66.0494L118.465 119.381L119.229 118.487L118.459 66.8007L117.354 66.0494Z" fill="#CC929B"/>
<path d="M120.702 67.5498L121.671 118.793L123.805 119.031L123.032 67.3449L120.702 67.5498Z" fill="#F5C5CC"/>
<path d="M121.931 66.5916L123.041 119.925L123.805 119.031L123.033 67.345L121.931 66.5916Z" fill="#CC929B"/>
<path d="M125.55 68.9158L126.521 120.159L128.652 120.399L127.882 68.713L125.55 68.9158Z" fill="#F5C5CC"/>
<path d="M126.781 67.9596L127.889 121.293L128.652 120.399L127.882 68.713L126.781 67.9596Z" fill="#CC929B"/>
<path d="M84.1641 61.0182L84.0603 57.9676L85.1395 57.3798L162.536 73.2102L162.679 77.0825L84.1641 61.0182Z" fill="#F5C5CC"/>
<path d="M85.1395 57.3798L162.82 73.1978L162.741 74.6486L84.2201 57.8786" fill="#CC929B"/>
<path d="M88.3437 136.94L86.1647 137.73H84.0894L83.9856 56.076L85.127 54.4948L86.229 54.1719L87.6174 53.9629L88.3437 136.94Z" fill="#F5C5CC"/>
<path d="M88.3438 136.94L86.1647 137.73L86.0298 56.2374L86.229 54.1719L87.6174 53.9629L88.3438 136.94Z" fill="#CC929B"/>
<path d="M130.817 70.4328L131.788 121.674L133.919 121.914L133.15 70.2279L130.817 70.4328Z" fill="#F5C5CC"/>
<path d="M132.046 69.4746L133.156 122.808L133.919 121.914L133.15 70.2279L132.046 69.4746Z" fill="#CC929B"/>
<path d="M136.124 71.242L137.113 123.58L139.245 123.824L138.454 71.0351L136.124 71.242Z" fill="#F5C5CC"/>
<path d="M141.588 72.2003L142.59 125.331L144.721 125.582L143.92 71.9892L141.588 72.2003Z" fill="#F5C5CC"/>
<path d="M142.816 71.2089L143.96 126.509L144.721 125.582L143.92 71.9892L142.816 71.2089Z" fill="#CC929B"/>
<path d="M58.1481 121.277L55.969 121.484L55.8673 64.3233L55.8652 63.5348L57.3179 62.3965L57.3408 63.9818L58.1481 121.277Z" fill="#F5C5CC"/>
<path d="M65.8267 118.069L63.6476 118.276L63.5459 62.0488L63.5438 60.3269L64.9965 59.1886L65.0297 61.4983L65.8267 118.069Z" fill="#F5C5CC"/>
<path d="M78.486 112.895L76.3069 113.102L76.2073 57.5847L76.2031 55.1529L77.6558 54.0146L77.7015 57.2391L78.486 112.895Z" fill="#F5C5CC"/>
<path d="M83.9856 110.825L81.8065 111.032L81.709 56.8707L81.7028 53.0833L83.1555 51.945L83.2302 57.206L83.9856 110.825Z" fill="#F5C5CC"/>
<path d="M61.9873 120.656L59.8082 120.863L59.7045 63.3279V62.9139L61.1572 61.7757L61.1717 62.8663L61.9873 120.656Z" fill="#F5C5CC"/>
<path d="M73.194 115.482L71.0149 115.689L70.9132 59.2383L70.9111 57.7399L72.3638 56.6016L72.3929 58.7251L73.194 115.482Z" fill="#F5C5CC"/>
<path d="M69.5622 116.517L67.3832 116.724L67.2836 60.6146L67.2794 58.7747L68.7321 57.6364L68.7653 60.033L69.5622 116.517Z" fill="#F5C5CC"/>
<path d="M55.8237 111.728L55.3049 112.814C55.3049 112.814 53.9559 114.832 54.1116 117.936C54.2672 121.041 51.9387 129.268 51.9387 129.268C51.9387 129.268 54.0659 130.251 55.6743 130.147C57.2826 130.044 60.7588 131.751 60.7588 131.751L67.9642 133.98L82.5433 137.395C82.5433 137.395 91.1039 142.155 93.4386 142.155C95.7733 142.155 105.06 145.311 105.06 145.311C105.06 145.311 117.616 148.053 118.602 149.088C119.587 150.123 123.744 151.516 124.159 151.572C124.574 151.628 130.904 152.244 130.904 152.244C130.904 152.244 138.271 153.952 139.309 152.141C139.914 151.123 140.319 149.999 140.502 148.829C140.502 148.829 143.771 149.554 144.653 148.467C145.535 147.381 145.587 145.052 146.625 145.156C147.662 145.259 151.917 146.553 152.384 146.087C152.85 145.622 155.341 140.137 157.105 140.965C158.869 141.793 161.93 143.086 161.93 143.086L160.166 125.184L159.388 120.269C159.388 120.269 131.112 131.755 130.126 131.755C129.14 131.755 55.8237 111.728 55.8237 111.728Z" fill="#794C74"/>
<path d="M159.232 96.0504L159.076 121.3L129.705 132.531L55.3049 112.818C55.3049 112.818 50.2722 105.73 54.9417 99.1072C54.9417 99.1072 48.9233 90.8288 56.3944 85.4478L56.5791 85.4043L84.8261 78.6181L97.3879 80.9071L152.892 91.0316C152.892 91.0316 158.344 93.0494 159.232 96.0504Z" fill="#794C74"/>
<path opacity="0.1" d="M96.3959 83.3223C94.9951 84.0467 84.8261 86.6854 82.8027 88.2894C80.7793 89.8933 66.7709 91.1392 66.7709 91.1392L65.2145 91.4497C65.2145 91.4497 65.3182 90.4149 59.1442 87.4139C58.1578 86.93 57.284 86.2455 56.5791 85.4043L84.8261 78.6181L97.3879 80.9071C97.4045 81.8984 97.2344 82.8877 96.3959 83.3223Z" fill="black"/>
<path d="M53.6965 73.3406C53.6965 73.3406 53.1777 83.3782 59.3517 86.3791C65.5258 89.38 65.4282 90.4107 65.4282 90.4107L66.9847 90.1003C66.9847 90.1003 61.5889 84.0984 61.9521 83.0636C62.3153 82.0288 57.127 76.8031 56.3944 76.5961C55.6618 76.3891 53.6965 73.3406 53.6965 73.3406Z" fill="#794C74"/>
<path opacity="0.1" d="M53.8065 73.4917C53.8065 73.4917 53.2877 83.5293 59.4617 86.5302C65.6358 89.5311 65.532 90.5659 65.532 90.5659L67.0885 90.2555C67.0885 90.2555 61.6927 84.2536 62.0559 83.2188C62.419 82.184 57.2245 76.9583 56.5044 76.7513C55.7843 76.5444 53.8065 73.4917 53.8065 73.4917Z" fill="black"/>
<path opacity="0.1" d="M55.2592 77.7344C55.2592 77.7344 60.2399 85.2367 61.1219 85.4954C62.0039 85.7541 56.4462 77.8379 55.2592 77.7344Z" fill="black"/>
<path d="M52.9763 71.9395C52.9763 71.9395 56.193 69.3525 56.6081 68.8351C57.0232 68.3177 61.5888 68.1107 61.7445 68.1107C61.9001 68.1107 65.3763 65.9894 69.2675 65.3167C73.1587 64.6441 74.7151 64.3337 74.7151 64.3337C74.7151 64.3337 80.4222 61.9536 80.7335 61.4362C81.0448 60.9188 83.6908 60.3497 86.9595 62.885C90.2281 65.4202 97.4398 76.8031 97.4916 78.0448C97.5435 79.2866 98.0105 81.5631 96.6096 82.2875C95.2088 83.0119 85.0398 85.6506 83.0164 87.2546C80.993 88.8585 66.9784 90.1044 66.9784 90.1044L61.6926 84.3571L58.8909 79.8557L54.2215 74.9404L52.9763 71.9395Z" fill="#794C74"/>
<path opacity="0.1" d="M61.6511 116.626C61.6511 116.626 59.7148 117.04 60.8209 118.143C61.9271 119.246 61.6511 116.626 61.6511 116.626Z" fill="black"/>
<path opacity="0.1" d="M68.4312 118.835C68.4312 118.835 66.3559 121.318 66.7709 122.007C67.186 122.697 68.4312 118.835 68.4312 118.835Z" fill="black"/>
<path opacity="0.1" d="M80.607 122.007C80.607 122.007 78.5317 124.491 78.9467 125.18C79.3618 125.869 80.607 122.007 80.607 122.007Z" fill="black"/>
<path opacity="0.1" d="M95.4102 126.147C95.4102 126.147 93.3349 128.63 93.75 129.319C94.165 130.008 95.4102 126.147 95.4102 126.147Z" fill="black"/>
<path opacity="0.1" d="M115.333 131.114C115.333 131.114 113.258 133.597 113.673 134.286C114.088 134.976 115.333 131.114 115.333 131.114Z" fill="black"/>
<path opacity="0.1" d="M74.381 119.524C74.381 119.524 72.3057 122.007 72.7208 122.697C73.1358 123.386 74.381 119.524 74.381 119.524Z" fill="black"/>
<path opacity="0.1" d="M103.296 128.216C103.296 128.216 101.221 130.7 101.636 131.389C102.051 132.078 103.296 128.216 103.296 128.216Z" fill="black"/>
<path opacity="0.1" d="M109.383 130.147C109.383 130.147 107.308 132.631 107.723 133.322C108.138 134.013 109.383 130.147 109.383 130.147Z" fill="black"/>
<path opacity="0.1" d="M86.0029 123.663C86.0029 123.663 83.9275 126.147 84.3426 126.836C84.7577 127.525 86.0029 123.663 86.0029 123.663Z" fill="black"/>
<path opacity="0.1" d="M138.301 138.703L140.496 148.825C140.496 148.825 140.513 141.737 138.301 138.703Z" fill="black"/>
<path opacity="0.1" d="M145.078 140.22L146.618 145.156C146.618 145.156 146.463 143.256 145.078 140.22Z" fill="black"/>
<path opacity="0.1" d="M152.384 146.083C152.384 146.083 149.098 134.15 148.405 133.322C147.712 132.494 150.406 145.326 152.384 146.083Z" fill="black"/>
<path opacity="0.1" d="M156.285 140.495C156.285 140.495 152.413 133.736 153.934 132.494C155.455 131.252 156.285 140.495 156.285 140.495Z" fill="black"/>
<path opacity="0.1" d="M54.9417 99.103L130.136 115.937L159.054 107.52L129.86 115.109C129.86 115.109 57.2245 98.4139 54.9417 99.103Z" fill="black"/>
<path d="M57.2141 80.816L57.3179 128.986L59.4451 129.245L59.5488 80.6608L57.2141 80.816Z" fill="#F5C5CC"/>
<path d="M58.4594 79.9364L58.6669 130.073L59.4451 129.245L59.5489 80.6608L58.4594 79.9364Z" fill="#CC929B"/>
<path d="M61.7279 82.1095L61.8317 130.28L63.9589 130.538L64.0626 81.9543L61.7279 82.1095Z" fill="#F5C5CC"/>
<path d="M62.9731 81.2299L63.1807 131.366L63.9589 130.538L64.0627 81.9543L62.9731 81.2299Z" fill="#CC929B"/>
<path d="M66.1379 83.5065L66.2417 131.677L68.3689 131.935L68.4726 83.3513L66.1379 83.5065Z" fill="#F5C5CC"/>
<path d="M67.3832 82.6269L67.5907 132.763L68.369 131.935L68.4727 83.3513L67.3832 82.6269Z" fill="#CC929B"/>
<path d="M70.4442 83.848L70.548 133.709L72.6752 133.976L72.7789 83.6866L70.4442 83.848Z" fill="#F5C5CC"/>
<path d="M71.6895 82.9374L71.897 134.833L72.6752 133.976L72.779 83.6866L71.6895 82.9374Z" fill="#CC929B"/>
<path d="M75.1136 84.3137L75.2174 134.175L77.3446 134.442L77.4484 84.1522L75.1136 84.3137Z" fill="#F5C5CC"/>
<path d="M76.3589 83.403L76.5664 135.298L77.3447 134.442L77.4484 84.1522L76.3589 83.403Z" fill="#CC929B"/>
<path d="M79.6793 86.0211L79.7831 135.882L81.9103 136.149L82.014 85.8596L79.6793 86.0211Z" fill="#F5C5CC"/>
<path d="M80.9246 85.1105L81.1321 137.006L81.9103 136.149L82.0141 85.8596L80.9246 85.1105Z" fill="#CC929B"/>
<path d="M86.1647 86.2487L86.3722 139.593L87.1505 138.711L87.2542 87.0186L86.1647 86.2487Z" fill="#CC929B"/>
<path d="M89.4851 87.8051L89.5889 139.057L91.7161 139.332L91.8198 87.6395L89.4851 87.8051Z" fill="#F5C5CC"/>
<path d="M90.7303 86.8696L90.9379 140.214L91.7161 139.332L91.8199 87.6395L90.7303 86.8696Z" fill="#CC929B"/>
<path d="M94.3103 89.2538L94.4141 140.506L96.5413 140.781L96.645 89.0882L94.3103 89.2538Z" fill="#F5C5CC"/>
<path d="M95.5554 88.3183L95.763 141.662L96.5412 140.781L96.645 89.0882L95.5554 88.3183Z" fill="#CC929B"/>
<path d="M99.5504 90.8578L99.6542 142.109L101.781 142.385L101.885 90.6922L99.5504 90.8578Z" fill="#F5C5CC"/>
<path d="M100.796 89.9223L101.003 143.266L101.781 142.385L101.885 90.6922L100.796 89.9223Z" fill="#CC929B"/>
<path d="M104.842 91.758L104.946 144.102L107.073 144.384L107.177 91.5883L104.842 91.758Z" fill="#F5C5CC"/>
<path d="M106.088 90.8019L106.295 145.284L107.073 144.384L107.177 91.5883L106.088 90.8019Z" fill="#CC929B"/>
<path d="M110.29 92.8073L110.394 145.949L112.521 146.234L112.625 92.6355L110.29 92.8073Z" fill="#CC929B"/>
<path d="M115.842 94.256L115.945 147.397L118.073 147.683L118.176 94.0843L115.842 94.256Z" fill="#F5C5CC"/>
<path d="M117.087 93.2854L117.294 148.596L118.072 147.683L118.176 94.0843L117.087 93.2854Z" fill="#CC929B"/>
<path d="M120.978 95.3426L121.082 148.484L123.209 148.769L123.313 95.1708L120.978 95.3426Z" fill="#CC929B"/>
<path d="M54.4125 138.351L52.2334 139.179H50.1581L50.0543 63.2244L51.1957 61.5687L52.2977 61.2313L53.8936 60.7408L54.4125 138.351Z" fill="#F5C5CC"/>
<path d="M54.4125 138.351L52.2334 139.179L52.0985 63.392L52.2977 61.2313L53.8937 60.7408L54.4125 138.351Z" fill="#CC929B"/>
<path d="M52.4409 141.559C53.8163 141.559 54.9313 140.447 54.9313 139.075C54.9313 137.704 53.8163 136.592 52.4409 136.592C51.0655 136.592 49.9506 137.704 49.9506 139.075C49.9506 140.447 51.0655 141.559 52.4409 141.559Z" fill="#40414D"/>
<path d="M165.856 149.978L163.677 150.769H161.602L161.498 67.2518L162.64 67.5333L163.742 67.2104L165.338 66.7427L165.856 149.978Z" fill="#F5C5CC"/>
<path d="M165.856 149.978L163.677 150.769L163.542 69.2759L163.742 67.2104L165.338 66.7427L165.856 149.978Z" fill="#CC929B"/>
<path d="M135.661 134.315L133.482 134.522L133.382 78.7278L133.378 76.5733L134.831 75.435L134.872 78.4091L135.661 134.315Z" fill="#F5C5CC"/>
<path d="M143.339 131.107L141.16 131.314L141.063 76.5506L141.057 73.3654L142.509 72.2272L142.563 76.0063L143.339 131.107Z" fill="#F5C5CC"/>
<path d="M155.999 125.933L153.82 126.14L153.722 71.5049L153.716 68.1914L155.169 67.0531L155.223 70.884L155.999 125.933Z" fill="#F5C5CC"/>
<path d="M159.215 66.1218L159.319 124.071L161.498 123.864L160.668 64.9835L159.215 66.1218Z" fill="#F5C5CC"/>
<path d="M139.5 133.694L137.321 133.901L137.221 77.7903L137.217 75.9524L138.67 74.8142L138.705 77.3412L139.5 133.694Z" fill="#F5C5CC"/>
<path d="M147.075 129.555L144.896 129.762L144.798 75.1432L144.792 71.8132L146.245 70.6749L146.299 74.541L147.075 129.555Z" fill="#F5C5CC"/>
<path d="M151.294 128.175L149.115 128.382L149.017 73.7628V73.4379L149.011 70.4328L150.464 69.2945L150.514 72.8253L150.518 73.1605L151.294 128.175Z" fill="#F5C5CC"/>
<path d="M131.303 133.937L161.395 121.173L163.47 121.656L163.538 126.416L131.857 138.626L131.303 133.937Z" fill="#F5C5CC"/>
<path d="M161.395 121.173L131.303 133.937L163.358 121.629" fill="#CC929B"/>
<path d="M53.3396 127.175L129.227 150.148L129.088 153.873L53.0636 130.487L53.3396 127.175Z" fill="#F5C5CC"/>
<path d="M132.548 163.186L130.369 164.014H128.293L128.19 78.9534V78.5395L128.351 78.3035L129.331 76.8838L130.433 76.5464L132.029 76.0559L132.046 78.9534L132.548 163.186Z" fill="#F5C5CC"/>
<path d="M132.548 163.186L130.369 164.014L130.234 78.7071L130.433 76.5464L132.029 76.0559L132.548 163.186Z" fill="#CC929B"/>
<path opacity="0.1" d="M132.029 76.0559L132.046 78.9534C131.445 79.0409 130.84 79.0975 130.234 79.1231C128.74 79.181 128.19 78.9554 128.19 78.9554C128.19 78.9265 128.248 78.6947 128.351 78.3077L129.331 76.8879L130.433 76.5506L132.029 76.0559Z" fill="black"/>
<path opacity="0.1" d="M134.831 75.435L134.872 78.4091C134.337 78.5332 133.84 78.6395 133.382 78.7278V76.5733L134.831 75.435Z" fill="black"/>
<path opacity="0.1" d="M138.67 74.8142L138.705 77.3412C138.189 77.5047 137.693 77.6537 137.221 77.7903V75.9524L138.67 74.8142Z" fill="black"/>
<path opacity="0.1" d="M142.509 72.2272L142.563 76.0063C142.044 76.198 141.544 76.3795 141.063 76.5506V73.3654L142.509 72.2272Z" fill="black"/>
<path opacity="0.1" d="M146.245 70.6749L146.299 74.541L145.103 75.0211L144.798 75.1432V71.8132L146.245 70.6749Z" fill="black"/>
<path opacity="0.1" d="M155.223 70.884L153.722 71.5049V68.1935L155.175 67.0552L155.223 70.884Z" fill="black"/>
<path opacity="0.1" d="M150.516 72.8253L149.019 73.4462V70.4411L150.472 69.3028L150.516 72.8253Z" fill="black"/>
<path d="M166.583 68.6054C166.583 68.6054 162.743 68.6054 161.706 68.2949C160.668 67.9845 158.489 69.2262 145.103 74.6072C137.01 77.8627 132.517 78.6181 130.234 78.7071C128.74 78.765 128.19 78.5395 128.19 78.5395C128.19 78.5395 130.923 66.0349 139.627 63.6983C140.597 63.4347 141.551 63.1147 142.484 62.7401L142.652 62.6759C143.383 62.3936 144.133 62.1619 144.896 61.9826C147.689 61.3431 149.684 60.12 154.733 60.0827C157.866 60.0304 160.923 61.0419 163.403 62.9512C165.134 64.3088 166.626 66.186 166.583 68.6054Z" fill="#CC929B"/>
<path d="M143.028 62.6035C132.257 67.2353 130.614 75.8924 130.234 78.7071C128.74 78.765 128.19 78.5395 128.19 78.5395C128.19 78.5395 130.923 66.0349 139.627 63.6983C140.597 63.4347 141.551 63.1147 142.484 62.7401L142.652 62.6759C142.777 62.6573 142.901 62.6325 143.028 62.6035Z" fill="#F5C5CC"/>
<path opacity="0.1" d="M57.318 62.3965L57.3408 63.9818C56.8157 64.1122 56.326 64.2261 55.8673 64.3233V63.5348L57.318 62.3965Z" fill="black"/>
<path opacity="0.1" d="M61.1572 61.7757L61.1717 62.8663C60.6612 63.0347 60.1721 63.1885 59.7045 63.3279V62.9139L61.1572 61.7757Z" fill="black"/>
<path opacity="0.1" d="M64.9966 59.1886L65.0298 61.4983C64.5192 61.6929 64.0246 61.8764 63.5459 62.0488V60.3269L64.9966 59.1886Z" fill="black"/>
<path opacity="0.1" d="M68.7321 57.6364L68.7653 60.033C68.288 60.2165 67.7941 60.4104 67.2836 60.6146V58.7747L68.7321 57.6364Z" fill="black"/>
<path opacity="0.1" d="M72.3638 56.6016L72.3929 58.7251C71.9225 58.8823 71.4293 59.0534 70.9132 59.2383V57.7399L72.3638 56.6016Z" fill="black"/>
<path opacity="0.1" d="M77.6558 54.0146L77.7015 57.2391C77.2429 57.3343 76.7469 57.446 76.2073 57.5847V55.1529L77.6558 54.0146Z" fill="black"/>
<path opacity="0.1" d="M83.2302 57.1977C82.7417 57.0142 82.2295 56.9012 81.709 56.8624V53.075L83.1617 51.9367L83.2302 57.1977Z" fill="black"/>
<path d="M88.4475 57.2225C88.4475 57.2225 84.6082 57.2225 83.5705 56.9121C82.5329 56.6016 80.3538 54.946 66.9681 60.3269C58.8744 63.5824 54.3813 64.3378 52.0985 64.4268C50.6043 64.4848 50.0543 64.2592 50.0543 64.2592C50.0543 64.2592 52.1151 53.3937 61.2029 51.5601C61.71 51.4615 62.211 51.3337 62.7033 51.1772C63.2616 50.9951 64.1415 50.7343 65.3244 50.4632C68.3751 49.7637 73.4327 48.9958 80.1546 49.3208C82.4844 49.4078 84.6941 50.3739 86.3369 52.0237C87.0243 52.7019 87.5659 53.5127 87.9287 54.4065C88.2916 55.3003 88.4681 56.2584 88.4475 57.2225Z" fill="#CC929B"/>
<path d="M65.3244 50.4632C54.5536 55.095 52.4783 61.6122 52.0985 64.4268C50.6043 64.4848 50.0543 64.2592 50.0543 64.2592C50.0543 64.2592 52.1151 53.3938 61.2029 51.5601C61.71 51.4615 62.211 51.3337 62.7033 51.1772C63.2616 50.9889 64.1415 50.7343 65.3244 50.4632Z" fill="#F5C5CC"/>
<path d="M53.0635 80.6608L53.0116 77.6081L54.1011 77.039L128.605 93.6993L128.397 97.5798L53.0635 80.6608Z" fill="#F5C5CC"/>
<path d="M54.1011 77.039L128.605 93.6993L128.501 95.148L53.1735 77.5233" fill="#CC929B"/>
<path d="M163.677 153.252C165.053 153.252 166.168 152.14 166.168 150.769C166.168 149.397 165.053 148.285 163.677 148.285C162.302 148.285 161.187 149.397 161.187 150.769C161.187 152.14 162.302 153.252 163.677 153.252Z" fill="#40414D"/>
<path d="M130.68 167.326C132.055 167.326 133.17 166.214 133.17 164.842C133.17 163.47 132.055 162.358 130.68 162.358C129.305 162.358 128.19 163.47 128.19 164.842C128.19 166.214 129.305 167.326 130.68 167.326Z" fill="#40414D"/>
<path d="M55.9004 113.791C55.9004 113.791 53.6861 116.275 52.995 118.483C52.3039 120.691 53.8251 128.97 53.8251 128.97C54.605 127.592 55.1651 126.102 55.4853 124.553C56.0374 121.933 55.9004 113.791 55.9004 113.791Z" fill="#794C74"/>
<path d="M160.979 134.419C160.979 134.419 162.328 141.248 162.432 142.283C162.536 143.318 159.008 141.766 159.008 141.766L160.979 134.419Z" fill="#794C74"/>
<path d="M120.096 49.9148H120.061C120.052 49.8444 120.026 49.7774 119.984 49.7202C119.889 49.6097 119.772 49.5208 119.639 49.4594L118.666 48.9193L119.507 49.2235C119.467 49.156 119.423 49.091 119.376 49.029L119.473 49.0828L119.407 48.9896L119.318 48.9586C118.869 48.435 118.122 48.2177 117.398 48.228H117.41C117.504 48.2156 117.599 48.2073 117.693 48.2011C117.485 48.1881 117.277 48.1944 117.07 48.2197C117.093 48.2298 117.118 48.2367 117.143 48.2404C117.076 48.2404 117.01 48.2529 116.935 48.2611C116.829 48.29 116.716 48.29 116.609 48.2611C116.544 48.2278 116.487 48.1795 116.443 48.1202C116.399 48.0609 116.37 47.9922 116.358 47.9197C116.255 47.5057 116.418 47.0608 116.466 46.6282C116.49 46.4252 116.468 46.2195 116.402 46.026C116.402 45.9846 116.402 45.9432 116.402 45.9018C116.368 45.8102 116.312 45.728 116.24 45.6618C116.168 45.5957 116.081 45.5474 115.987 45.521C115.986 45.5368 115.986 45.5527 115.987 45.5686L115.952 45.5541C115.952 45.9246 115.952 46.2971 115.952 46.6675C115.629 46.4141 115.344 46.1174 115.103 45.7859C115.06 45.7355 115.03 45.6749 115.018 45.61C114.997 45.4216 115.238 45.2913 115.252 45.1009C115.251 45.0397 115.231 44.9804 115.193 44.9319C115.156 44.8834 115.104 44.8483 115.045 44.8318L115.107 44.809C115.033 44.7749 114.951 44.7606 114.87 44.7676C114.693 44.8081 114.518 44.8606 114.347 44.9249L114.401 44.9353C114.361 44.9485 114.32 44.9596 114.279 44.9684C113.758 45.076 113.293 44.6621 112.917 44.2875L112.837 44.2068C112.658 42.6484 112.37 40.8623 112.37 40.8623C112.37 40.8623 112.11 38.8217 111.747 37.7248C111.384 36.6279 110.861 34.6907 110.861 34.6907C110.861 34.6907 109.665 32.3376 109.408 32.2341C109.308 32.1841 109.21 32.1289 109.115 32.0685C109.003 31.7166 108.934 31.3525 108.908 30.9841C108.844 28.9269 111.048 27.4657 111.38 25.4272C111.652 23.7715 110.606 22.1158 110.757 20.4374C110.828 19.7027 111.124 19.0114 111.284 18.2912C111.436 17.5925 111.456 16.8718 111.344 16.1657C111.292 15.786 111.177 15.4176 111.004 15.075C111.306 14.6863 111.557 14.2615 111.753 13.8105C112.089 12.8543 111.726 11.7864 111.201 10.913C109.514 8.13356 106.096 5.94599 102.9 5.66245C101.611 5.54448 100.318 5.52172 99.0274 5.50102C97.5457 5.47412 96.0141 5.45756 94.6444 6.02877C91.9216 7.16498 90.6328 10.2011 88.9788 12.6515C87.6125 14.6781 85.8628 16.4194 83.8279 17.7779C82.8712 18.4154 81.7526 19.0942 81.5284 20.2263C81.5071 20.3348 81.4939 20.4448 81.489 20.5553C81.461 20.4558 81.4382 20.355 81.4205 20.2532C81.1943 21.4349 82.0307 22.5297 82.4582 23.6577C82.6815 24.2472 82.8104 24.8681 82.84 25.4975C82.8566 25.1998 82.8566 24.9013 82.84 24.6035C83.2551 26.7517 82.4935 29.0573 82.0224 31.2531C81.9871 31.4146 81.9601 31.576 81.9269 31.7374C81.5403 31.8449 81.1722 32.0103 80.8353 32.2279C80.0963 32.7184 79.2594 33.0432 78.3823 33.1799C77.2056 33.3642 76.1472 33.9981 75.4312 34.9474C75.2984 35.1254 75.1697 35.2475 75.0576 35.2599C74.5907 35.3137 71.9882 43.4183 71.9882 43.4183C71.9882 43.4183 71.4466 46.7565 71.4466 47.5388C71.4466 48.3212 70.5106 53.9712 70.5106 53.9712C70.5106 53.9712 70.1973 55.006 70.3031 55.4344C70.3633 55.6724 70.2201 56.4692 70.0852 57.1108C70.0287 57.0873 69.9788 57.0504 69.9399 57.0032C69.7843 56.6906 66.9203 57.0032 67.8065 59.0955C68.0268 59.6584 68.3691 60.1659 68.8089 60.5815C68.4146 61.5666 68.0721 62.4835 68.1178 62.5994C68.1178 62.5994 68.1178 63.3465 68.1842 64.2695C67.5761 64.6835 67.0781 65.056 67.0781 65.056C67.0345 66.1984 67.7982 66.3805 68.5163 66.3391C68.701 67.0014 68.9708 67.5271 69.3671 67.6699C70.6684 68.1418 71.5005 67.9327 71.9177 68.2908C72.3348 68.6488 74.5596 69.3442 74.5596 69.3442C75.5044 69.4862 76.4563 69.5767 77.411 69.6153L77.7929 69.8057L77.7472 69.5988C77.8697 69.576 77.8136 69.4311 77.6601 69.1849C77.5916 68.8682 77.5044 68.4543 77.4069 67.9824L77.9776 67.7754L78.1332 68.0052C77.9257 69.0896 77.7929 69.8119 77.7929 69.8119C77.7929 69.8119 76.7552 73.5248 77.2201 74.1002C77.685 74.6755 77.2201 75.4081 77.2201 75.4081C77.2201 75.4081 77.1163 76.3478 77.3778 76.3478C77.6393 76.3478 77.9485 77.5502 77.6891 77.604C77.4297 77.6578 76.2364 78.6492 76.6515 78.8582C77.0665 79.0672 76.6515 79.537 76.6515 80.0089C76.6515 80.3524 77.2865 80.8616 77.631 81.112C77.5687 81.3355 77.5044 81.5735 77.4442 81.8074C77.2658 82.4986 77.1267 83.165 77.1703 83.4072C77.2741 83.9825 76.9109 85.603 77.0146 86.1266C77.1184 86.6503 77.4837 87.7989 77.2222 88.2708C76.9607 88.7426 77.2741 90.3093 77.2741 90.3093L77.7431 94.7528C77.7431 94.7528 77.4318 96.009 77.7431 96.3215C78.0544 96.634 78.3159 100.297 78.6272 100.715C78.9385 101.133 79.4095 103.329 79.0422 104.062C78.6749 104.794 79.5112 106.309 79.5112 106.309C79.5112 106.309 79.4594 108.087 79.4594 108.557C79.4594 109.027 79.9263 109.759 79.9263 109.759C79.9263 109.759 80.3953 112.27 80.3414 112.897C80.2874 113.524 80.6527 114.414 80.6527 114.414C80.6527 114.414 80.966 116.244 80.9141 116.662C80.8623 117.08 81.3292 117.655 81.3292 117.655C81.3292 117.655 81.902 119.015 81.7443 119.59C81.5865 120.165 82.1074 120.741 82.1074 120.741C82.1074 120.741 82.0556 121.995 82.0556 122.152C82.0556 122.31 83.1493 123.564 83.1493 123.564C83.1493 123.564 82.6802 124.505 82.9417 124.872C83.2032 125.238 83.1493 126.544 83.5643 126.964C83.9794 127.384 83.8756 129.106 84.3944 129.421C84.9133 129.735 85.3823 129.996 85.486 130.675C85.5898 131.354 86.007 132.349 86.476 132.506C86.565 132.567 86.6423 132.644 86.7042 132.732L86.4967 133.612L85.8554 136.271C85.8554 136.271 85.2329 140.139 85.2827 140.715C85.3325 141.29 84.6601 141.865 84.6601 141.865C84.6601 141.865 84.0873 145.212 83.9835 145.63C83.8798 146.048 84.0354 146.832 84.0354 146.832C84.0354 146.832 83.6722 148.819 83.9316 148.925C84.1911 149.03 85.2847 150.127 85.2847 150.127H85.3698L85.2578 150.52L83.4626 156.874C83.4626 156.874 81.8024 159.645 85.65 161.057C85.7787 161.305 85.897 161.311 85.7579 161.264C85.8845 161.371 88.4558 163.54 88.6633 164.556C88.8709 165.573 90.6411 166.647 91.2658 166.752C91.8904 166.858 96.0535 170.202 97.5623 166.91C99.071 163.617 94.9079 161.471 94.9079 161.471L91.7389 159.436C91.7389 159.436 90.1264 157.083 89.8712 156.665C89.6159 156.247 89.1427 154.206 89.4561 153.894C89.6159 153.732 90.1161 152.3 90.5685 150.938C90.61 150.808 90.6536 150.68 90.6951 150.551C91.5791 150.758 92.5794 150.344 92.5794 150.344L94.8976 146.698L95.3126 146.058L95.3873 146.207C95.3873 146.207 97.3132 146.365 98.2492 146.522C98.5466 146.534 98.8439 146.497 99.1291 146.412C99.1644 146.489 99.1997 146.567 99.2329 146.646C99.46 147.131 99.6528 147.631 99.8098 148.142C99.9655 148.821 100.123 151.226 100.123 151.226C100.123 151.226 99.0855 154.678 98.822 155.305C98.5584 155.932 99.0814 161.162 104.234 159.07C104.234 159.07 104.857 158.076 105.43 158.076C106.003 158.076 107.408 156.665 106.882 155.148C106.357 153.631 104.185 148.978 105.687 146.522C106.899 144.543 106.802 141.89 105.172 140.657C105.104 140.605 105.031 140.559 104.965 140.514C104.983 140.251 104.983 139.986 104.965 139.723C104.6 134.704 102.267 134.442 102.267 134.442C102.267 134.442 100.914 134.129 100.758 133.614C100.667 133.312 99.4944 131.751 98.5231 130.482C98.5563 130.429 98.5875 130.375 98.6186 130.321C98.6186 130.302 98.6393 130.284 98.6476 130.265C98.6933 130.18 98.7369 130.093 98.7784 130.002C99.5338 128.309 99.3387 125.847 99.2993 125.406C99.2474 124.83 99.2993 124.098 99.2993 123.262C99.2993 122.425 100.129 121.169 100.028 120.699C99.926 120.23 101.018 118.295 101.018 117.823C101.018 117.351 101.783 114.526 101.783 114.526C101.783 114.526 103.292 111.283 103.606 110.341C103.904 109.439 109.234 92.9895 109.665 91.6566C109.673 91.6271 109.683 91.5981 109.694 91.5697C109.694 91.5697 111.396 86.017 110.257 82.3703C110.183 82.1296 110.094 81.8938 109.989 81.6646C110.338 81.4969 110.579 81.3748 110.579 81.3748C110.579 81.3748 109.902 79.388 110.213 78.6554C110.525 77.9227 110.317 76.5113 110.317 76.5113C110.317 76.5113 109.072 75.7786 109.018 75.4661C108.964 75.1536 108.445 74.7335 108.603 74.3154C108.761 73.8973 109.641 74.1084 109.539 73.1647C109.437 72.221 108.343 71.2296 108.447 70.6543C108.551 70.0789 108.966 69.0338 108.447 68.4067C107.928 67.7796 107.719 66.7862 107.667 66.0018C107.652 65.7948 107.698 65.1843 107.771 64.3792C108.326 64.7235 108.898 65.0378 109.487 65.3209C109.487 65.3209 111.724 65.6355 111.83 65.4264C112.03 65.16 112.257 64.9146 112.507 64.6938C115.317 64.015 114.067 58.8989 114.067 58.8989C114.067 58.8989 114.026 58.5243 113.959 57.9076C114.03 57.8898 114.096 57.8582 114.154 57.8144C114.393 57.6406 114.451 57.3095 114.596 57.0487C114.762 56.8021 114.955 56.5757 115.173 56.374C115.688 55.8152 115.993 55.1012 116.288 54.3996C116.475 53.9526 116.665 53.5055 116.854 53.0564C117.043 52.6073 117.269 52.0713 117.684 51.7464C118.162 51.3635 118.809 51.289 119.417 51.2331C119.393 50.7687 119.219 50.3245 118.921 49.9665C119.104 49.9107 119.297 49.8966 119.486 49.9252C119.675 49.9539 119.855 50.0246 120.013 50.1321C120.021 50.118 120.029 50.1035 120.036 50.0886H120.048C120.083 50.0375 120.1 49.9764 120.096 49.9148ZM75.6574 64.2344C75.6698 64.1309 75.6885 64.0274 75.7113 63.9239C75.813 63.8287 75.9355 63.717 76.0662 63.6135L76.7926 63.6838C76.6141 63.8287 76.4585 63.9612 76.3319 64.0688C76.1077 63.955 75.8628 64.0667 75.6574 64.2344ZM77.1101 62.8001C77.2129 62.7927 77.3142 62.7711 77.411 62.736C77.5501 62.736 77.6933 62.736 77.8385 62.736H78.0461C77.6995 62.9781 77.3488 63.2472 77.0375 63.4976L77.1101 62.8167V62.8001ZM78.3076 52.2451C78.3076 52.2451 78.2598 53.7311 78.3657 55.2254C78.2038 55.3392 78.0357 55.4634 77.8697 55.5938L78.237 52.1479L78.3076 52.2451Z" fill="url(#paint0_linear)"/>
<path d="M105.413 157.857C104.842 157.857 104.22 158.84 104.22 158.84C99.0834 160.91 98.5646 155.736 98.824 155.115C99.0834 154.494 100.121 151.079 100.121 151.079C100.121 151.079 99.9654 148.699 99.8098 148.026C99.6524 147.521 99.4603 147.026 99.2349 146.547C98.8863 145.754 98.5127 144.974 98.5127 144.974C98.5127 144.974 100.744 139.489 103.701 140.007C104.228 140.095 104.726 140.308 105.154 140.628C106.779 141.849 106.876 144.475 105.666 146.423C104.162 148.854 106.341 153.459 106.86 154.96C107.378 156.46 105.984 157.857 105.413 157.857Z" fill="#FDC2CC"/>
<path d="M97.5788 166.601C96.0742 169.861 91.9236 166.549 91.301 166.446C90.6784 166.342 88.9144 165.308 88.7069 164.273C88.4993 163.238 85.9322 161.121 85.8014 161.015C85.9405 161.059 85.8222 161.053 85.6935 160.808C81.8542 159.411 83.5144 156.669 83.5144 156.669L85.3033 150.382L85.7973 148.649L91.4006 148.287C91.4006 148.287 91.0167 149.51 90.5892 150.796C90.1388 152.143 89.6407 153.561 89.4809 153.72C89.1696 154.03 89.6366 156.048 89.896 156.462C90.1554 156.876 91.7638 159.204 91.7638 159.204L94.9286 161.222C94.9286 161.222 99.0834 163.342 97.5788 166.601Z" fill="#FDC2CC"/>
<path opacity="0.1" d="M91.4047 148.285C91.4047 148.285 91.0208 149.508 90.5933 150.794C90.3006 150.71 90.0406 150.539 89.8483 150.303L85.3345 150.406L85.3075 150.38L85.8014 148.647L91.4047 148.285Z" fill="black"/>
<path d="M109.668 92.0436C109.668 92.0436 109.668 92.0726 109.641 92.1285C109.209 93.4468 103.896 109.72 103.597 110.618C103.286 111.55 101.781 114.758 101.781 114.758C101.781 114.758 101.003 117.552 101.003 118.017C101.003 118.483 99.9136 120.397 100.017 120.863C100.121 121.329 99.291 122.57 99.291 123.398C99.291 124.226 99.2391 124.95 99.291 125.519C99.3304 125.956 99.5234 128.394 98.7701 130.073C98.6058 130.463 98.362 130.816 98.0541 131.107C97.9703 131.183 97.8808 131.252 97.7864 131.314C95.9186 132.556 95.763 145.284 95.763 145.284L95.6758 145.421L94.9183 146.605L92.5981 150.206C92.5981 150.206 90.7304 150.982 89.8484 149.895L85.3346 149.999C85.3346 149.999 84.245 148.912 83.9856 148.809C83.7262 148.705 84.0894 146.739 84.0894 146.739C84.0894 146.739 83.9337 145.963 84.0375 145.549C84.1413 145.135 84.712 141.824 84.712 141.824C84.712 141.824 85.3865 141.255 85.3346 140.686C85.2827 140.116 85.9053 136.288 85.9053 136.288L86.5445 133.657L86.8599 132.36L87.5136 129.669L91.9237 90.8122L97.527 89.1048L108.319 89.6222L109.501 91.7539L109.668 92.0436Z" fill="#5F5D7E"/>
<path opacity="0.1" d="M94.4659 111.136C94.414 112.119 94.1546 113.619 94.2583 114.499C94.3621 115.378 94.7253 118.69 94.5696 119.311C94.414 119.932 95.1403 120.656 95.3997 120.966C95.6592 121.277 95.5035 122.208 95.5554 122.932C95.6073 123.657 96.2817 124.329 96.2817 124.329C96.2817 124.329 95.5035 125.985 96.0742 126.244C96.6449 126.503 97.8382 128.883 97.8382 128.883C97.8382 128.883 98.2388 129.386 98.77 130.068C98.5669 130.567 98.2257 130.998 97.7863 131.31C95.9186 132.552 95.7629 145.28 95.7629 145.28L95.6758 145.417L94.5177 143.107C94.5177 143.107 87.6174 132.707 87.1504 132.552C87.0379 132.508 86.9381 132.437 86.8599 132.345L87.5136 129.655L91.9236 90.7977L97.5269 89.0903L108.319 89.6077L102.636 90.1768C102.636 90.1768 100.111 91.9836 100.094 92.0395L95.5554 93.9539L94.7253 106.371C94.7253 106.371 94.5177 110.153 94.4659 111.136Z" fill="black"/>
<path opacity="0.1" d="M109.501 91.7435C109.358 92.3189 94.414 90.5949 94.414 90.5949L94.5178 94.5789L93.6876 106.997C93.6876 106.997 93.4801 110.774 93.4282 111.757C93.3763 112.74 93.1169 114.24 93.2207 115.12C93.3245 115.999 93.6876 119.311 93.532 119.932C93.3763 120.552 94.1027 121.277 94.3621 121.587C94.6215 121.898 94.4659 122.829 94.5178 123.553C94.5696 124.278 95.2441 124.95 95.2441 124.95C95.2441 124.95 94.4659 126.606 95.0366 126.865C95.6073 127.123 96.8006 129.503 96.8006 129.503C96.8006 129.503 97.3713 130.222 98.0458 131.103C97.9619 131.179 97.8725 131.248 97.7781 131.31C95.9103 132.552 95.7546 145.28 95.7546 145.28L95.6675 145.417L94.9183 146.605L93.4801 143.738C93.4801 143.738 88.1569 135.714 86.5444 133.657L86.8599 132.36L87.5136 129.669L91.9236 90.8122L97.5269 89.1048L108.319 89.6222L109.501 91.7435Z" fill="black"/>
<path opacity="0.1" d="M105.16 140.619C104.952 144.324 101.038 146.137 99.2349 146.547C98.8863 145.754 98.5127 144.974 98.5127 144.974C98.5127 144.974 100.744 139.489 103.701 140.007C104.23 140.091 104.73 140.301 105.16 140.619Z" fill="black"/>
<path d="M93.8434 111.136C93.7915 112.119 93.5321 113.619 93.6358 114.499C93.7396 115.378 94.1028 118.69 93.9471 119.311C93.7915 119.932 94.5178 120.656 94.7772 120.966C95.0367 121.277 94.881 122.208 94.9329 122.933C94.9848 123.657 95.6593 124.329 95.6593 124.329C95.6593 124.329 94.881 125.985 95.4517 126.244C96.0224 126.503 97.2157 128.883 97.2157 128.883C97.2157 128.883 100.588 133.125 100.744 133.643C100.899 134.16 102.248 134.471 102.248 134.471C102.248 134.471 104.583 134.729 104.946 139.696C105.309 144.663 99.1873 146.578 98.2534 146.423C97.3195 146.267 95.3998 146.112 95.3998 146.112L93.8952 143.111C93.8952 143.111 86.9949 132.711 86.5279 132.556C86.061 132.401 85.6459 131.418 85.5421 130.745C85.4384 130.073 84.9714 129.814 84.4526 129.504C83.9338 129.193 84.0375 127.486 83.6225 127.072C83.2074 126.658 83.2593 125.364 82.9999 125.002C82.7405 124.64 83.2074 123.709 83.2074 123.709C83.2074 123.709 82.1179 122.467 82.1179 122.312C82.1179 122.156 82.1698 120.915 82.1698 120.915C82.1698 120.915 81.6509 120.345 81.8066 119.776C81.9622 119.207 81.3915 117.862 81.3915 117.862C81.3915 117.862 80.9246 117.293 80.9765 116.879C81.0283 116.465 80.717 114.654 80.717 114.654C80.717 114.654 80.3539 113.775 80.4058 113.154C80.4576 112.533 79.9907 110.049 79.9907 110.049C79.9907 110.049 79.5237 109.325 79.5237 108.859C79.5237 108.394 79.5756 106.634 79.5756 106.634C79.5756 106.634 78.7455 105.134 79.1087 104.41C79.4719 103.685 79.0049 101.512 78.6936 101.098C78.3823 100.684 78.1229 97.0624 77.8116 96.752C77.5003 96.4416 77.8116 95.1998 77.8116 95.1998L77.3447 90.8019C77.3447 90.8019 77.0334 89.2497 77.2928 88.784C77.5522 88.3183 77.189 87.1801 77.0853 86.6627C76.9815 86.1453 77.3447 84.5413 77.2409 83.9722C77.1973 83.7321 77.3364 83.074 77.5128 82.3889C77.7577 81.4452 78.071 80.4538 78.071 80.4538C78.071 80.4538 104.739 77.9703 108.578 80.5573C109.408 81.112 109.921 81.9543 110.238 82.9394C111.373 86.5488 109.676 92.0457 109.676 92.0457L94.9412 93.9601L94.1111 106.378C94.1111 106.378 93.8952 110.153 93.8434 111.136Z" fill="#5F5D7E"/>
<path opacity="0.1" d="M89.589 129.555C89.589 129.555 94.2065 128.158 95.2961 129.09C96.3856 130.021 89.589 129.555 89.589 129.555Z" fill="black"/>
<path opacity="0.1" d="M91.2491 135.454C91.2491 135.454 92.65 133.953 94.7253 134.419C95.9427 134.702 97.2199 134.574 98.357 134.057L91.2491 135.454Z" fill="black"/>
<path opacity="0.1" d="M96.1261 137.161C96.1261 137.161 99.9135 136.644 100.069 137.109C100.225 137.575 96.1261 137.161 96.1261 137.161Z" fill="black"/>
<path opacity="0.1" d="M95.0366 140.214C95.0366 140.214 99.2391 138.972 99.4466 139.489C99.6542 140.007 94.8291 140.162 94.8291 140.162L95.0366 140.214Z" fill="black"/>
<path opacity="0.1" d="M99.7579 112.326C99.7579 112.326 95.8149 115.792 96.3856 116.155C96.9563 116.517 99.7579 112.326 99.7579 112.326Z" fill="black"/>
<path opacity="0.1" d="M96.5411 120.915C96.5411 120.915 99.2909 120.915 98.7721 121.535C98.2533 122.156 96.5411 120.915 96.5411 120.915Z" fill="black"/>
<path opacity="0.1" d="M98.2015 123.346C98.2015 123.346 97.1119 124.278 97.3713 124.485C97.6308 124.692 98.2015 123.346 98.2015 123.346Z" fill="black"/>
<path opacity="0.1" d="M86.2166 145.543C86.2166 145.543 89.6408 146.681 89.6927 147.406C89.7446 148.13 86.2166 145.543 86.2166 145.543Z" fill="black"/>
<path d="M102.819 37.3543L101.729 43.8218C101.729 43.8218 92.2868 48.7889 92.1312 48.7889C91.9755 48.7889 85.2308 47.6506 84.9714 47.6506C84.712 47.6506 80.3019 34.3534 83.4149 33.5255C84.2575 33.302 85.4798 32.7639 86.8142 32.0954C90.4128 30.3011 94.8291 27.5754 94.8291 27.5754C94.8291 27.5754 101.418 26.8511 99.8098 31.4042C99.1872 33.1903 99.5068 34.49 100.136 35.4109C101.123 36.839 102.819 37.3543 102.819 37.3543Z" fill="#FDC2CC"/>
<path opacity="0.1" d="M102.819 37.3543L101.729 43.8218C101.729 43.8218 92.2868 48.7889 92.1312 48.7889C91.9755 48.7889 85.2308 47.6506 84.9714 47.6506C84.712 47.6506 80.3019 34.3534 83.4149 33.5255C84.2575 33.302 85.4798 32.7639 86.8142 32.0954C87.663 32.1513 88.24 32.232 88.24 32.232C88.24 32.232 90.3153 40.1483 90.4709 42.58C90.6266 45.0118 96.0224 45.2705 96.3856 45.1671C96.7487 45.0636 98.2533 39.1135 98.2533 39.1135C98.2533 39.1135 98.0977 37.0439 98.5646 37.0439C98.9548 37.0439 99.8555 35.8021 100.136 35.4109C101.123 36.839 102.819 37.3543 102.819 37.3543Z" fill="black"/>
<path opacity="0.1" d="M110.23 82.9394C109.508 83.2913 107.781 84.0943 107.324 83.9742C106.754 83.819 105.353 83.819 105.353 83.819C105.353 83.819 104.523 84.7503 103.641 84.5434C102.759 84.3364 99.2827 84.4916 99.2827 84.4916C99.2827 84.4916 93.0567 84.7503 91.8634 84.3364C90.6701 83.9225 86.4158 83.5603 86.4158 83.5603C86.4158 83.5603 80.6049 82.8877 79.6191 82.4738C79.3412 82.3528 79.0358 82.3082 78.7348 82.3446C78.4337 82.381 78.1479 82.4971 77.907 82.6807C77.907 82.6807 77.7265 82.5628 77.5044 82.391C77.7493 81.4473 78.0627 80.4559 78.0627 80.4559C78.0627 80.4559 104.73 77.9724 108.57 80.5594C109.4 81.112 109.921 81.9543 110.23 82.9394Z" fill="black"/>
<path d="M88.24 32.646C88.24 32.646 82.9999 31.9216 80.9245 33.3186C80.1871 33.8043 79.3532 34.1255 78.4798 34.2602C77.3089 34.4412 76.2539 35.0681 75.537 36.0091C75.4042 36.187 75.2756 36.3071 75.1656 36.3195C74.6986 36.3712 72.1045 44.391 72.1045 44.391L78.3823 53.135C78.3823 53.135 78.2266 57.9986 79.1087 58.9299C79.9907 59.8613 77.8635 70.5197 77.8635 70.5197C77.8635 70.5197 76.8258 74.1933 77.2928 74.7624C77.7597 75.3316 77.2928 76.0559 77.2928 76.0559C77.2928 76.0559 77.189 76.9872 77.4484 76.9872C77.7078 76.9872 78.0191 78.1773 77.7597 78.229C77.5003 78.2807 76.307 79.2638 76.7221 79.4708C77.1371 79.6777 76.7221 80.1434 76.7221 80.6091C76.7221 81.0747 77.9154 81.8508 77.9154 81.8508C78.1563 81.6671 78.4421 81.5511 78.7431 81.5147C79.0442 81.4783 79.3495 81.5229 79.6275 81.6439C80.6133 82.0578 86.4241 82.7304 86.4241 82.7304C86.4241 82.7304 90.6785 83.0926 91.8718 83.5065C93.0651 83.9204 99.291 83.6617 99.291 83.6617C99.291 83.6617 102.767 83.5065 103.649 83.7135C104.531 83.9204 105.361 82.9891 105.361 82.9891C105.361 82.9891 106.762 82.9891 107.333 83.1443C107.904 83.2995 110.55 81.9543 110.55 81.9543C110.55 81.9543 109.875 79.9882 110.186 79.2638C110.498 78.5394 110.29 77.1425 110.29 77.1425C110.29 77.1425 109.045 76.4181 108.993 76.1077C108.941 75.7972 108.422 75.3833 108.578 74.9694C108.734 74.5555 109.616 74.7624 109.512 73.8311C109.408 72.8998 108.319 71.9167 108.422 71.3476C108.526 70.7784 108.941 69.7436 108.422 69.1227C107.904 68.5019 107.696 67.5188 107.644 66.7427C107.592 65.9666 108.422 58.9299 108.422 58.9299L106.503 44.7531L112.365 41.8557C112.365 41.8557 112.106 39.8378 111.743 38.7513C111.38 37.6647 110.861 35.7504 110.861 35.7504C110.861 35.7504 109.668 33.4221 109.408 33.3186C109.149 33.2151 106.399 31.4042 105.776 31.6629C105.154 31.9216 100.225 35.6986 100.225 35.6986C100.225 35.6986 99.0316 37.4578 98.5646 37.4578C98.0977 37.4578 98.2534 39.5274 98.2534 39.5274C98.2534 39.5274 96.7488 45.4775 96.3856 45.581C96.0224 45.6845 90.6266 45.4258 90.471 42.994C90.3153 40.5622 88.24 32.646 88.24 32.646Z" fill="#D39999"/>
<path d="M80.1048 63.2368C79.385 63.3947 78.652 63.4848 77.9153 63.5059C76.8507 63.5348 75.9147 63.4003 75.6844 63.0174C75.0618 61.9826 75.0618 60.0165 75.0618 60.0165C75.0618 60.0165 77.8759 60.6643 79.8184 61.3721L80.14 61.4921C80.8934 61.7839 81.4662 62.082 81.5928 62.3427C81.7733 62.6925 81.0781 63.0195 80.1048 63.2368Z" fill="#FDC2CC"/>
<path opacity="0.1" d="M100.484 34.4569C105.728 34.4569 109.979 30.2177 109.979 24.9884C109.979 19.7591 105.728 15.52 100.484 15.52C95.2406 15.52 90.9897 19.7591 90.9897 24.9884C90.9897 30.2177 95.2406 34.4569 100.484 34.4569Z" fill="black"/>
<path d="M100.484 34.0429C105.728 34.0429 109.979 29.8038 109.979 24.5745C109.979 19.3452 105.728 15.1061 100.484 15.1061C95.2406 15.1061 90.9897 19.3452 90.9897 24.5745C90.9897 29.8038 95.2406 34.0429 100.484 34.0429Z" fill="#FDC2CC"/>
<path opacity="0.1" d="M79.4718 75.6937C79.4718 75.6937 82.1697 75.6937 83.2074 75.9524C84.245 76.2111 86.4241 76.2629 86.4241 76.2629C86.4241 76.2629 80.4057 76.0559 79.4718 75.6937Z" fill="black"/>
<path opacity="0.1" d="M79.5756 77.3494C79.5756 77.3494 83.0517 77.6081 83.1036 78.1255C83.1555 78.6429 79.5756 77.3494 79.5756 77.3494Z" fill="black"/>
<path opacity="0.1" d="M106.036 70.9854C106.036 70.9854 108.163 71.7615 108.111 72.0202C108.059 72.2789 106.243 71.6063 106.036 70.9854Z" fill="black"/>
<path d="M73.4534 43.4596L72.1045 44.391C72.1045 44.391 71.5338 47.7023 71.5338 48.4784C71.5338 49.2545 70.5999 54.8425 70.5999 54.8425C70.5999 54.8425 70.2886 55.8773 70.3923 56.2912C70.4961 56.7051 69.9773 58.8265 69.9773 58.8265C69.9773 58.8265 68.1095 63.1209 68.2133 63.3796C68.317 63.6383 77.0852 64.4661 77.0852 64.4661L78.3304 52.8763L73.4534 43.4596Z" fill="#D39999"/>
<path d="M69.5104 61.9826L68.2133 63.3796C68.2133 63.3796 68.1614 67.9327 69.4585 68.3984C70.7555 68.864 71.5857 68.6571 72.0007 69.0193C72.4158 69.3815 74.6468 70.0541 74.6468 70.0541C74.6468 70.0541 77.0852 70.4163 77.8116 70.3128C78.538 70.2093 73.5572 66.2253 76.8258 62.8622L69.5104 61.9826Z" fill="#D39999"/>
<path d="M110.55 39.8378L112.365 41.8557C112.365 41.8557 113.144 46.6675 112.936 47.3402C112.729 48.0128 114.026 59.706 114.026 59.706C114.026 59.706 115.271 64.7766 112.469 65.4492C112.22 65.6673 111.994 65.91 111.795 66.1736C111.691 66.3805 109.46 66.0701 109.46 66.0701L106.036 43.6666L110.55 39.8378Z" fill="#D39999"/>
<path opacity="0.1" d="M85.8533 58.3608C85.8533 58.3608 92.6499 54.3251 93.8951 54.1181C95.1403 53.9111 102.871 50.2376 102.871 50.2376C102.871 50.2376 106.71 52.2037 107.073 53.7042C107.436 55.2046 105.465 61.2065 105.465 61.2065C105.465 61.2065 99.1352 65.6044 98.7721 66.5357C98.4089 67.4671 92.9612 70.2093 92.9612 70.6749C92.9612 71.1406 84.3487 76.2111 80.5613 71.7615C76.7738 67.3118 76.8257 66.0183 76.8257 66.0183L86.424 63.7935L87.3579 59.6543L85.8533 58.3608Z" fill="black"/>
<path d="M85.8533 57.9469C85.8533 57.9469 92.6499 53.9111 93.8951 53.7042C95.1403 53.4972 102.871 49.8237 102.871 49.8237C102.871 49.8237 106.71 51.7898 107.073 53.2903C107.436 54.7907 105.465 60.7926 105.465 60.7926C105.465 60.7926 99.1352 65.1905 98.7721 66.1218C98.4089 67.0531 92.9612 69.7954 92.9612 70.261C92.9612 70.7267 84.3487 75.7972 80.5613 71.3476C76.7738 66.8979 76.8257 65.6044 76.8257 65.6044L86.424 63.3796L87.3579 59.2404L85.8533 57.9469Z" fill="#C4C8E2"/>
<path d="M75.3731 59.7578L75.0618 62.3448L72.5943 62.1647L70.1848 61.9868C70.1848 61.9868 68.784 61.9868 67.902 59.9171C67.02 57.8475 69.8735 57.5371 70.0292 57.8475C70.1475 58.0814 73.1421 59.0562 74.5949 59.5177L75.3731 59.7578Z" fill="#FDC2CC"/>
<path opacity="0.1" d="M75.3731 59.7578L75.0618 62.3448L72.5942 62.1647C72.9968 61.5687 73.8394 60.478 74.5969 59.5177L75.3731 59.7578Z" fill="black"/>
<path opacity="0.1" d="M75.0618 60.0165C75.0618 60.0165 77.8759 60.6643 79.8184 61.3721C79.6897 61.579 78.8305 62.9202 77.9153 63.5059C76.8507 63.5348 75.9147 63.4003 75.6844 63.0174C75.0618 61.9826 75.0618 60.0165 75.0618 60.0165Z" fill="black"/>
<path opacity="0.1" d="M80.1048 63.2368L80.0591 62.8787C80.0591 62.8787 80.0384 62.8022 80.0197 62.6863C79.9824 62.4503 79.9554 62.053 80.1297 61.8108C80.2314 61.668 80.2086 61.5666 80.1422 61.4942C80.8955 61.786 81.4683 62.084 81.5949 62.3448C81.7733 62.6925 81.0781 63.0195 80.1048 63.2368Z" fill="black"/>
<path d="M88.9145 61.5439C88.9145 61.5439 86.0962 64.3564 85.9219 64.9587C85.7475 65.561 80.4223 65.5796 80.4223 65.5796L80.0591 62.6821C80.0591 62.6821 80.0384 62.6056 80.0197 62.4897C79.9823 62.2537 79.9554 61.8564 80.1297 61.6142C80.3891 61.252 79.835 61.1486 79.835 61.1486C79.835 61.1486 78.3989 63.51 77.189 63.5803C77.189 63.5803 75.5121 64.7869 75.5287 65.0291C75.5287 65.0291 74.7152 65.77 74.6986 66.6661C74.682 67.5623 73.6444 67.9265 72.8827 67.6678C72.1211 67.4091 70.2367 66.8565 69.6307 66.9434C69.0247 67.0304 67.1071 67.5974 67.1756 65.8217C67.1756 65.8217 69.666 63.9591 70.2886 64.0108C70.9112 64.0626 72.3639 63.3382 72.5714 62.7691C72.7789 62.1999 76.307 57.8537 76.307 57.8537C76.307 57.8537 78.5379 55.749 79.4365 55.542C79.4365 55.542 81.2358 54.145 83.9503 56.2664C83.9503 56.2664 87.7046 58.576 87.8249 58.8865C87.9204 59.1307 89.0099 60.1738 89.1012 60.9561C89.1223 61.0618 89.1162 61.1711 89.0836 61.2739C89.0509 61.3767 88.9927 61.4695 88.9145 61.5439Z" fill="#FDC2CC"/>
<path opacity="0.1" d="M80.111 57.4295C80.111 57.4295 80.387 59.0169 80.25 59.586C80.1131 60.1552 79.835 61.1382 79.835 61.1382C79.835 61.1382 81.5118 58.516 80.111 57.4295Z" fill="black"/>
<path opacity="0.1" d="M80.2313 61.2934C80.2313 61.2934 81.0967 60.3435 81.2877 60.5856C81.4786 60.8278 80.2313 61.2934 80.2313 61.2934Z" fill="black"/>
<path d="M115.661 51.6098C115.661 52.9264 115.231 54.2072 114.435 55.2581C113.64 56.309 112.523 57.0727 111.253 57.4336C110.722 57.5859 110.172 57.6639 109.62 57.6654H109.589C108.791 57.6652 108.002 57.5083 107.266 57.2038C106.529 56.8994 105.86 56.4532 105.297 55.8909C104.733 55.3286 104.286 54.6611 103.982 53.9265C103.677 53.192 103.52 52.4047 103.52 51.6098C103.519 51.2544 103.551 50.8996 103.616 50.5501C103.853 49.2263 104.525 48.0191 105.527 47.1194C106.529 46.2198 107.804 45.6791 109.149 45.5831C109.294 45.5706 109.441 45.5644 109.589 45.5644C111.197 45.5639 112.741 46.2003 113.879 47.3338C115.018 48.4674 115.659 50.0053 115.661 51.6098Z" fill="#F8BDC5"/>
<path d="M118.863 50.8668C119.16 51.2205 119.333 51.6606 119.357 52.1209C118.751 52.1768 118.112 52.2493 117.63 52.628C117.215 52.9509 117.008 53.4558 116.8 53.9256C116.611 54.3685 116.423 54.8114 116.236 55.2543C115.941 55.9476 115.638 56.6554 115.126 57.208C114.908 57.4073 114.715 57.6309 114.549 57.8744C114.405 58.1331 114.341 58.4601 114.109 58.634C113.992 58.7053 113.859 58.7465 113.722 58.7541C113.585 58.7617 113.448 58.7354 113.324 58.6774C113.069 58.5822 112.841 58.4229 112.585 58.3215C112.421 58.2585 112.251 58.2141 112.077 58.189C111.317 58.0773 110.481 58.2408 109.836 57.8331C109.761 57.7836 109.691 57.7267 109.628 57.6633C109.376 57.4169 109.193 57.1085 109.099 56.7693C109.051 56.6317 109.034 56.4856 109.049 56.3409C109.079 56.2085 109.137 56.0843 109.22 55.977C109.304 55.8697 109.41 55.7819 109.531 55.72C109.566 55.6993 109.601 55.6786 109.638 55.66C110.261 55.335 111.126 55.2585 111.452 54.6252C111.764 54.025 111.378 53.2944 110.904 52.8101C110.68 52.5825 110.415 52.3238 110.446 52.005C110.475 51.7236 110.726 51.527 110.936 51.3386C111.529 50.8037 111.928 50.0886 112.073 49.3042C112.128 49.0619 112.124 48.8098 112.06 48.5695C111.996 48.3972 111.907 48.2348 111.797 48.0873L111.124 47.0939C110.917 46.7432 110.633 46.4434 110.294 46.2164C110.014 46.0487 109.692 45.9908 109.41 45.8252C109.303 45.7666 109.213 45.681 109.149 45.5769C109.113 45.5186 109.101 45.449 109.115 45.3823C109.151 45.2167 109.323 45.136 109.495 45.0884C109.941 44.9594 110.407 44.9152 110.869 44.958C111.015 44.9891 111.167 44.9891 111.313 44.958C111.386 44.9387 111.449 44.894 111.491 44.832C111.534 44.7701 111.552 44.6951 111.544 44.6207C112.054 44.4882 112.538 44.8856 112.911 45.2581C113.285 45.6307 113.741 46.0384 114.268 45.9328C114.457 45.8956 114.632 45.788 114.823 45.7673C115.013 45.7466 115.25 45.8707 115.238 46.0632C115.225 46.2557 114.984 46.3799 115.005 46.5661C115.018 46.6306 115.047 46.6906 115.09 46.74C115.33 47.0688 115.614 47.3628 115.935 47.6133C115.935 47.247 115.935 46.8786 115.935 46.5123C116.35 46.6158 116.501 47.1456 116.454 47.574C116.406 48.0024 116.246 48.435 116.346 48.853C116.358 48.9246 116.387 48.9924 116.431 49.0509C116.474 49.1095 116.53 49.1572 116.595 49.1904C116.702 49.2192 116.814 49.2192 116.921 49.1904C117.873 49.0559 118.986 49.3083 119.459 50.1424L118.629 49.8423L119.594 50.368C119.726 50.4286 119.843 50.5168 119.938 50.6267C119.984 50.6825 120.011 50.7513 120.016 50.8234C120.02 50.8955 120.002 50.9671 119.963 51.0282C119.803 50.9211 119.622 50.851 119.431 50.8231C119.241 50.7952 119.047 50.8101 118.863 50.8668Z" fill="#585268"/>
<g opacity="0.1">
<path opacity="0.1" d="M117.035 49.1428C117.141 49.1716 117.254 49.1716 117.361 49.1428C117.454 49.1303 117.547 49.1221 117.643 49.1159C117.435 49.1028 117.227 49.109 117.02 49.1345L117.035 49.1428Z" fill="black"/>
<path opacity="0.1" d="M119.06 49.8009L119.417 49.9975L119.351 49.9044L119.06 49.8009Z" fill="black"/>
<path opacity="0.1" d="M116.383 47.5657C116.383 47.3257 116.383 47.0835 116.383 46.8414C116.347 46.7512 116.291 46.6705 116.219 46.6052C116.147 46.5399 116.061 46.4919 115.968 46.4647V47.1932C116.099 47.3259 116.237 47.4503 116.383 47.5657Z" fill="black"/>
<path opacity="0.1" d="M119.475 50.7943C119.659 50.8257 119.833 50.8963 119.986 51.0013C120.022 50.9532 120.041 50.8939 120.038 50.8336C119.855 50.7803 119.663 50.7669 119.475 50.7943Z" fill="black"/>
<path opacity="0.1" d="M113.783 58.6464C113.528 58.5512 113.299 58.3918 113.044 58.2904C112.88 58.2275 112.709 58.183 112.536 58.158C111.776 58.0462 110.94 58.2097 110.294 57.802C110.22 57.7525 110.15 57.6957 110.087 57.6323C109.835 57.3858 109.652 57.0774 109.557 56.7382C109.51 56.6007 109.493 56.4545 109.508 56.3098C109.537 56.1774 109.596 56.0532 109.679 55.9459C109.762 55.8386 109.868 55.7509 109.989 55.6889C110.024 55.6682 110.06 55.6475 110.097 55.6289C110.73 55.304 111.585 55.2274 111.911 54.5941C112.222 53.9939 111.836 53.2633 111.363 52.7791C111.139 52.5514 110.873 52.2927 110.904 51.974C110.933 51.6925 111.185 51.4959 111.394 51.3076C111.987 50.7726 112.387 50.0576 112.531 49.2731C112.587 49.0308 112.582 48.7788 112.519 48.5384C112.454 48.3661 112.366 48.2037 112.255 48.0562L111.583 47.0628C111.375 46.7121 111.092 46.4123 110.753 46.1853C110.473 46.0177 110.151 45.9597 109.869 45.7941C109.761 45.7355 109.671 45.6499 109.607 45.5458C109.572 45.4875 109.56 45.4179 109.574 45.3512C109.609 45.1857 109.792 45.105 109.954 45.0574C110.225 44.9816 110.503 44.9358 110.784 44.9208C110.364 44.8961 109.943 44.9423 109.539 45.0574C109.377 45.105 109.194 45.1857 109.159 45.3512C109.145 45.4179 109.157 45.4875 109.192 45.5458C109.256 45.6499 109.346 45.7355 109.454 45.7941C109.736 45.9597 110.058 46.0177 110.338 46.1853C110.677 46.4123 110.96 46.7121 111.168 47.0628L111.84 48.0562C111.951 48.2037 112.039 48.3661 112.104 48.5384C112.167 48.7788 112.171 49.0308 112.116 49.2731C111.972 50.0576 111.572 50.7726 110.979 51.3076C110.772 51.4959 110.518 51.6925 110.489 51.974C110.458 52.2927 110.724 52.5514 110.948 52.7791C111.421 53.2633 111.807 53.9939 111.496 54.5941C111.17 55.2253 110.315 55.3019 109.682 55.6289C109.645 55.6475 109.609 55.6682 109.574 55.6889C109.453 55.7509 109.347 55.8386 109.264 55.9459C109.181 56.0532 109.122 56.1774 109.093 56.3098C109.078 56.4545 109.095 56.6007 109.142 56.7382C109.237 57.0774 109.42 57.3858 109.672 57.6323C109.735 57.6957 109.804 57.7525 109.879 57.802C110.525 58.2159 111.361 58.0462 112.12 58.158C112.294 58.183 112.465 58.2275 112.629 58.2904C112.884 58.3918 113.112 58.5512 113.368 58.6464C113.553 58.7223 113.757 58.7396 113.953 58.6961C113.895 58.6836 113.838 58.667 113.783 58.6464Z" fill="black"/>
<path opacity="0.1" d="M114.717 45.8852C114.844 45.8526 114.97 45.8119 115.092 45.7631C115.019 45.7273 114.937 45.7123 114.856 45.7196C114.68 45.7613 114.506 45.8138 114.337 45.8769C114.461 45.9077 114.591 45.9105 114.717 45.8852Z" fill="black"/>
<path opacity="0.1" d="M111.317 44.9208C111.465 44.9484 111.616 44.9449 111.762 44.9104C111.834 44.8911 111.897 44.8467 111.939 44.7852C111.981 44.7238 112 44.6492 111.992 44.5751C111.856 44.5401 111.713 44.5401 111.577 44.5751C111.585 44.6496 111.567 44.7246 111.524 44.7865C111.482 44.8484 111.419 44.8931 111.346 44.9125C111.332 44.9169 111.318 44.9204 111.303 44.9228L111.317 44.9208Z" fill="black"/>
</g>
<path d="M104.116 48.2984C103.342 48.8758 102.107 49.1262 100.972 49.209C100.084 49.2791 99.1927 49.2791 98.3052 49.209L96.3066 48.4598C96.3066 48.4598 96.4685 48.139 96.7425 47.7148C97.2883 46.8704 98.2803 45.6141 99.3158 45.6658C100.872 45.7424 102.508 45.819 102.663 45.819C102.819 45.819 105.853 47.0049 104.116 48.2984Z" fill="#FDC2CC"/>
<path d="M99.0607 6.87109C97.583 6.84419 96.0577 6.82763 94.7025 7.3947C91.9776 8.5185 90.693 11.5215 89.0452 13.9429C87.6787 15.9496 85.9342 17.6723 83.9088 19.0155C82.9542 19.6364 81.846 20.3194 81.6156 21.437C81.3708 22.6187 82.2175 23.7135 82.6533 24.8332C83.5768 27.2153 82.6533 29.8541 82.1075 32.35C81.8521 33.5488 81.6877 34.765 81.6156 35.9884C81.5563 36.5548 81.5935 37.1272 81.7256 37.6813C82.1407 39.1424 83.7096 40.1979 83.7221 41.717C83.7221 42.7518 82.9916 43.7287 83.2053 44.7345C83.4813 46.0197 85.0461 46.4833 86.3432 46.7048C86.6537 46.7899 86.9827 46.7798 87.2874 46.6758C87.495 46.5765 87.6652 46.3861 87.8768 46.2805C88.597 45.9245 89.396 46.6758 90.2012 46.6613C91.2119 46.6427 91.7805 45.4527 91.8054 44.4448C91.8303 43.4369 91.5605 42.3752 91.9237 41.4438C92.4072 40.2021 93.7915 39.6122 94.9599 38.9603C96.2528 38.238 97.4834 37.1949 97.8653 35.769C98.1039 34.8873 97.996 33.9539 97.9006 33.0475C97.7553 31.6567 97.6412 30.2597 97.5623 28.8648C97.3548 25.3051 100.32 22.3393 103.884 22.6166H103.95C104.988 22.7015 106.212 22.8008 106.945 22.0475C107.235 21.7474 107.42 21.3335 107.775 21.1265C108.468 20.7333 109.421 21.2942 110.118 20.9072C110.664 20.6029 110.78 19.8724 110.695 19.2515C110.61 18.6306 110.392 18.0097 110.508 17.4012C110.674 16.5382 111.461 15.9215 111.753 15.0916C112.089 14.1458 111.726 13.0882 111.203 12.2314C109.529 9.47673 106.119 7.3202 102.923 7.03045C101.638 6.90628 100.349 6.89179 99.0607 6.87109Z" fill="#865A61"/>
<path opacity="0.1" d="M96.7425 47.7085C97.9752 47.961 99.4756 48.5219 100.972 49.2069C100.084 49.277 99.1927 49.277 98.3052 49.2069L96.3066 48.4577C96.3066 48.4577 96.4685 48.1328 96.7425 47.7085Z" fill="black"/>
<path opacity="0.1" d="M112.079 58.189C111.319 58.0773 110.483 58.2408 109.838 57.8331C109.763 57.7836 109.693 57.7267 109.63 57.6633H109.599C108.801 57.6644 108.011 57.5087 107.273 57.2049C106.536 56.9012 105.866 56.4555 105.301 55.8932C104.737 55.331 104.289 54.6633 103.983 53.9283C103.678 53.1933 103.52 52.4054 103.52 51.6097C103.519 51.2544 103.551 50.8996 103.616 50.5501C105.743 51.736 107.468 52.955 107.8 53.551C108.29 54.3355 108.868 55.0624 109.522 55.7179C110.101 56.3388 110.722 56.9348 111.253 57.4336C111.568 57.7254 111.853 57.9841 112.079 58.189Z" fill="black"/>
<path d="M112.417 58.8782C112.417 58.8782 108.63 55.6186 107.592 53.7559C106.555 51.8933 91.9755 43.977 93.8433 49.9789C95.711 55.9807 102.144 56.5499 102.144 56.5499C102.144 56.5499 104.22 58.8782 104.427 60.0165C104.635 61.1548 105.361 62.8105 105.361 62.8105L108.837 64.3627L110.446 64.0005C110.446 64.0005 114.233 61.9309 112.417 58.8782Z" fill="#FDC2CC"/>
<path opacity="0.1" d="M105.154 62.6035C105.154 62.6035 111.276 66.0701 111.898 57.9469L113.455 58.4643L111.898 63.9487L109.252 65.8631C109.252 65.8631 105.569 64.1557 105.154 62.6035Z" fill="black"/>
<path d="M105.361 62.8104C105.361 62.8104 111.483 66.277 112.106 58.1538L113.662 58.6712L112.106 64.1557L109.46 66.0701C109.46 66.0701 105.776 64.3627 105.361 62.8104Z" fill="#D39999"/>
<path d="M110.767 21.646C110.838 20.9196 111.135 20.2345 111.29 19.5205C111.444 18.8298 111.465 18.1164 111.353 17.4178C111.29 16.9132 111.101 16.4323 110.805 16.0188C110.597 15.7601 109.975 15.1909 109.611 15.4475C109.404 15.5945 109.348 16.4451 109.265 16.6893C108.974 17.5096 108.583 18.2914 108.103 19.0176C109.129 20.4299 109.744 22.0976 109.88 23.8364C110.016 25.5753 109.668 27.3179 108.873 28.8718C108.079 30.4257 106.87 31.7306 105.379 32.6423C103.888 33.5541 102.173 34.0374 100.424 34.0388C100.198 34.0388 99.9737 34.0285 99.7516 34.0119C99.5441 34.372 99.3553 34.7363 99.1643 35.1005C98.9388 35.4704 98.7867 35.88 98.7161 36.3071C98.6988 36.7154 98.7615 37.1231 98.9008 37.5075C99.2872 38.7718 99.8207 39.9866 100.49 41.1272C100.724 41.4813 100.916 41.8612 101.061 42.2593C101.179 42.6422 101.2 43.0519 101.354 43.4203C101.698 44.2482 102.599 44.6621 103.429 45.0077C103.925 45.2147 104.444 45.4216 104.979 45.3782C105.03 45.3819 105.08 45.3752 105.127 45.3584C105.175 45.3416 105.218 45.3151 105.255 45.2806C105.291 45.2461 105.32 45.2044 105.339 45.1581C105.359 45.1118 105.368 45.062 105.367 45.0119C105.396 44.795 105.374 44.5743 105.302 44.3677C105.23 44.161 105.11 43.9741 104.952 43.8218C105.656 44.0419 106.395 44.1296 107.131 44.0805C107.197 44.0943 107.266 44.0888 107.329 44.0648C107.391 44.0408 107.446 43.9992 107.486 43.9451C107.526 43.891 107.549 43.8266 107.553 43.7596C107.557 43.6926 107.542 43.6258 107.509 43.5673C107.318 42.7866 107.026 42.034 106.642 41.328C106.264 40.6326 105.782 39.8234 106.127 39.1135C106.324 38.6996 106.739 38.4678 107.117 38.2215C108.393 37.3936 109.524 36.0443 109.425 34.5272C109.371 33.6994 108.951 32.9109 108.927 32.0768C108.862 30.0424 111.058 28.5875 111.39 26.5779C111.654 24.9346 110.608 23.3079 110.767 21.646Z" fill="#865A61"/>
<g opacity="0.1">
<path opacity="0.1" d="M83.6099 40.8892C83.5975 39.3701 82.0306 38.3146 81.6135 36.8535C81.5493 36.623 81.5096 36.3865 81.4952 36.1477C81.449 36.6619 81.4889 37.1802 81.6135 37.6813C81.9953 39.0162 83.3318 40.0138 83.5705 41.3362C83.5971 41.1887 83.6103 41.0391 83.6099 40.8892Z" fill="black"/>
<path opacity="0.1" d="M90.089 45.8335C89.2838 45.848 88.4848 45.0967 87.7647 45.4527C87.5572 45.5582 87.3911 45.7486 87.1753 45.848C86.8706 45.9519 86.5416 45.962 86.231 45.8769C84.9381 45.6555 83.3775 45.194 83.0973 43.9191C83.0444 44.1883 83.0444 44.4653 83.0973 44.7345C83.3733 46.0197 84.9381 46.4833 86.2352 46.7048C86.5457 46.7899 86.8747 46.7798 87.1794 46.6758C87.387 46.5765 87.5571 46.3861 87.7688 46.2805C88.489 45.9245 89.288 46.6758 90.0932 46.6613C91.1039 46.6427 91.6725 45.4527 91.6974 44.4448C91.6974 44.2378 91.6974 44.0309 91.6829 43.8239C91.577 44.7801 91.0291 45.8149 90.089 45.8335Z" fill="black"/>
<path opacity="0.1" d="M97.7572 34.9391C97.3712 36.365 96.1405 37.4081 94.8518 38.1304C93.6834 38.7844 92.2991 39.3722 91.8156 40.6139C91.6376 41.1502 91.5767 41.7183 91.6371 42.28C91.6551 41.9934 91.7152 41.711 91.8156 41.4418C92.2991 40.2 93.6834 39.6102 94.8518 38.9583C96.1447 38.236 97.3753 37.1929 97.7572 35.7669C97.8889 35.2255 97.933 34.6666 97.8879 34.1112C97.8718 34.3908 97.828 34.6681 97.7572 34.9391Z" fill="black"/>
<path opacity="0.1" d="M109.12 20.2138C108.619 20.1766 108.098 20.0607 107.667 20.3008C107.304 20.5077 107.119 20.9216 106.837 21.2217C106.104 21.9751 104.89 21.8757 103.842 21.7909H103.776C100.212 21.5136 97.2508 24.4814 97.4542 28.039C97.4542 28.0659 97.4542 28.0949 97.4542 28.1218C97.5037 27.3458 97.7068 26.5872 98.0517 25.8898C98.3966 25.1924 98.8765 24.5699 99.4637 24.0584C100.051 23.5468 100.734 23.1562 101.473 22.9091C102.213 22.6621 102.994 22.5633 103.771 22.6187H103.838C104.876 22.7036 106.1 22.8029 106.833 22.0496C107.123 21.7495 107.308 21.3356 107.663 21.1286C108.078 20.8885 108.607 21.0044 109.115 21.0417C109.515 22.031 109.743 23.0807 109.79 24.1461C109.79 24.0116 109.8 23.877 109.8 23.7322C109.8 22.5268 109.569 21.3326 109.12 20.2138Z" fill="black"/>
<path opacity="0.1" d="M82.9292 26.6586C82.9914 25.7587 82.862 24.8559 82.5494 24.0095C82.2215 23.163 81.6591 22.3331 81.5118 21.4701C81.2855 22.6394 82.1219 23.7218 82.5494 24.8373C82.7712 25.4207 82.8994 26.0354 82.9292 26.6586Z" fill="black"/>
<path opacity="0.1" d="M111.303 17.9C111.284 18.1668 111.245 18.4317 111.187 18.6927C111.031 19.4067 110.734 20.0917 110.664 20.8182C110.639 21.077 110.639 21.3376 110.664 21.5963C110.742 20.8885 111.027 20.218 111.18 19.5267C111.3 18.9934 111.342 18.4453 111.303 17.9Z" fill="black"/>
<path opacity="0.1" d="M111.278 25.7542C110.946 27.7638 108.75 29.2187 108.814 31.2531C108.818 31.3633 108.828 31.4732 108.844 31.5822C109.105 29.8003 110.975 28.424 111.278 26.582C111.329 26.2484 111.336 25.9095 111.299 25.5741C111.292 25.6341 111.292 25.6942 111.278 25.7542Z" fill="black"/>
<path opacity="0.1" d="M111.656 14.2596C111.46 14.703 111.209 15.1202 110.908 15.5014C110.995 15.668 111.064 15.8427 111.116 16.0229C111.335 15.7325 111.514 15.4145 111.649 15.0771C111.779 14.6908 111.812 14.2786 111.745 13.8767C111.727 14.0068 111.697 14.1349 111.656 14.2596Z" fill="black"/>
<path opacity="0.1" d="M109.288 34.3058C109.103 35.5724 108.109 36.6755 107.005 37.3978C106.627 37.6441 106.212 37.8841 106.015 38.2898C105.878 38.595 105.858 38.9395 105.959 39.2584C105.974 39.21 105.992 39.1629 106.015 39.1176C106.212 38.7037 106.627 38.4719 107.005 38.2256C108.281 37.3978 109.412 36.0484 109.313 34.5314C109.308 34.4548 109.298 34.3803 109.288 34.3058Z" fill="black"/>
<path opacity="0.1" d="M105.137 44.4634C105.06 44.522 104.966 44.554 104.869 44.5545C104.334 44.6 103.815 44.391 103.319 44.184C102.489 43.8405 101.584 43.4224 101.244 42.5966C101.09 42.2282 101.069 41.8185 100.951 41.4356C100.806 41.0375 100.614 40.6576 100.38 40.3035C99.7107 39.1629 99.1772 37.9481 98.7908 36.6838C98.7305 36.4927 98.6806 36.2986 98.6414 36.1022C98.6268 36.1705 98.6144 36.2409 98.6061 36.3092C98.5888 36.7175 98.6515 37.1252 98.7908 37.5095C99.1772 38.7739 99.7107 39.9887 100.38 41.1293C100.614 41.4833 100.806 41.8632 100.951 42.2613C101.069 42.6442 101.09 43.054 101.244 43.4224C101.588 44.2502 102.489 44.6642 103.319 45.0098C103.815 45.2167 104.334 45.4237 104.869 45.3802C104.92 45.384 104.97 45.3773 105.017 45.3605C105.065 45.3437 105.108 45.3172 105.145 45.2827C105.181 45.2482 105.21 45.2065 105.23 45.1602C105.249 45.1139 105.258 45.0641 105.257 45.0139C105.285 44.8049 105.263 44.5925 105.195 44.393C105.18 44.4198 105.161 44.4437 105.137 44.4634Z" fill="black"/>
<path opacity="0.1" d="M107.291 43.1927C107.206 43.2331 107.114 43.255 107.019 43.2568C106.283 43.3059 105.544 43.2182 104.84 42.9981C105.098 43.2463 105.25 43.5832 105.266 43.9398C105.84 44.0747 106.431 44.1236 107.019 44.0847C107.085 44.0984 107.154 44.0929 107.217 44.0689C107.279 44.0449 107.334 44.0033 107.374 43.9492C107.414 43.8951 107.437 43.8307 107.441 43.7637C107.445 43.6967 107.43 43.63 107.397 43.5714C107.366 43.4431 107.329 43.3169 107.291 43.1927Z" fill="black"/>
</g>
<path opacity="0.1" d="M78.3303 47.7541C78.3303 47.7541 78.1228 51.9968 78.7454 52.3072C79.368 52.6176 78.3303 47.7541 78.3303 47.7541Z" fill="black"/>
<path opacity="0.1" d="M90.1078 58.9299C90.3153 58.9299 91.1454 59.3439 91.2492 59.8095C91.353 60.2752 90.1078 58.9299 90.1078 58.9299Z" fill="black"/>
<path opacity="0.1" d="M89.589 59.6026C89.7965 59.6026 90.6266 60.0165 90.7304 60.4821C90.8341 60.9478 89.589 59.6026 89.589 59.6026Z" fill="black"/>
<path opacity="0.1" d="M91.5085 61.4652C91.7161 61.4652 92.5462 61.8791 92.65 62.3448C92.7537 62.8105 91.5085 61.4652 91.5085 61.4652Z" fill="black"/>
<path opacity="0.1" d="M88.9144 61.5439C88.9144 61.5439 86.0961 64.3565 85.9218 64.9587C85.7475 65.561 80.4223 65.5796 80.4223 65.5796L80.0591 62.6821C80.0591 62.6821 80.0383 62.6056 80.0197 62.4897C81.491 62.113 86.2622 60.3559 89.1012 60.9788C89.1183 61.0811 89.1102 61.1859 89.0777 61.2843C89.0452 61.3828 88.9891 61.4718 88.9144 61.5439Z" fill="black"/>
<path d="M76.0807 65.1036C76.0807 65.1036 78.7973 62.707 79.6274 62.7587C80.4575 62.8105 90.5746 58.516 91.2491 63.3279C91.9236 68.1397 78.3303 68.3984 78.3303 68.3984L76.255 69.1745C76.255 69.1745 74.5242 65.414 76.0807 65.1036Z" fill="#FDC2CC"/>
<path d="M75.2859 65.4492C75.2859 65.4492 76.5311 63.7252 76.9109 65.8279C77.2906 67.9307 77.8634 70.5197 77.8634 70.5197L75.0784 69.1393L75.2859 65.4492Z" fill="#D39999"/>
<path opacity="0.1" d="M190.592 138.945C195.726 138.945 199.887 138.308 199.887 137.523C199.887 136.738 195.726 136.101 190.592 136.101C185.458 136.101 181.297 136.738 181.297 137.523C181.297 138.308 185.458 138.945 190.592 138.945Z" fill="#794C74"/>
<path opacity="0.1" d="M164.354 165.417C172.377 165.417 178.881 164.422 178.881 163.195C178.881 161.967 172.377 160.972 164.354 160.972C156.331 160.972 149.827 161.967 149.827 163.195C149.827 164.422 156.331 165.417 164.354 165.417Z" fill="#794C74"/>
<path opacity="0.1" d="M203.785 174C214.397 174 223 172.683 223 171.059C223 169.435 214.397 168.118 203.785 168.118C193.172 168.118 184.569 169.435 184.569 171.059C184.569 172.683 193.172 174 203.785 174Z" fill="#794C74"/>
<path opacity="0.1" d="M14.5271 142.654C22.5503 142.654 29.0543 141.659 29.0543 140.431C29.0543 139.203 22.5503 138.208 14.5271 138.208C6.50402 138.208 0 139.203 0 140.431C0 141.659 6.50402 142.654 14.5271 142.654Z" fill="#794C74"/>
<path d="M183.262 123.882C183.262 123.882 181.948 129.988 187.797 130.712L188.16 130.033C188.16 130.033 183.625 125.782 183.262 123.882Z" fill="#794C74"/>
<path d="M190.019 129.986L188.66 130.273L188.523 130.304C188.523 130.304 184.895 127.366 184.941 120.807C185.427 121.774 186.008 122.69 186.674 123.543C188.112 125.439 189.739 127.978 190.019 129.986Z" fill="#794C74"/>
<path d="M190.48 130.615C190.373 130.685 190.251 130.729 190.125 130.746C189.998 130.762 189.869 130.75 189.747 130.71C186.255 129.897 187.435 118.547 187.435 118.547C187.628 118.638 187.851 120.081 188.643 121.945C190.052 125.219 191.607 129.793 190.48 130.615Z" fill="#794C74"/>
<path d="M198.225 123.882C198.225 123.882 198.453 129.988 192.603 130.712L192.24 130.033C192.24 130.033 197.864 125.782 198.225 123.882Z" fill="#794C74"/>
<path d="M196.548 120.807C196.592 127.366 191.879 130.304 191.879 130.304L191.742 130.273L190.382 129.986C190.65 127.972 192.29 125.433 193.726 123.543C194.539 122.509 195.489 121.589 196.548 120.807Z" fill="#794C74"/>
<path d="M191.721 130.021C191.511 130.276 191.244 130.479 190.943 130.615C190.852 130.657 190.756 130.689 190.658 130.71C189.797 130.917 189.498 130.296 189.548 129.243C189.629 127.38 190.808 124.131 191.866 121.705C192.628 119.958 193.873 118.634 194.058 118.547C194.054 118.547 194.002 127.384 191.721 130.021Z" fill="#794C74"/>
<path d="M190.743 114.567C190.743 114.567 186.844 128.359 190.2 130.439C193.556 132.519 191.607 115.788 190.743 114.567Z" fill="#794C74"/>
<path opacity="0.1" d="M183.262 123.882C183.262 123.882 181.948 129.988 187.797 130.712L188.16 130.033C188.16 130.033 183.625 125.782 183.262 123.882Z" fill="black"/>
<path opacity="0.1" d="M190.019 129.986L188.66 130.273L188.523 130.304C188.523 130.304 184.895 127.366 184.941 120.807C185.427 121.774 186.008 122.69 186.674 123.543C188.112 125.439 189.739 127.978 190.019 129.986Z" fill="black"/>
<path opacity="0.1" d="M190.48 130.615C190.373 130.685 190.251 130.729 190.125 130.746C189.998 130.762 189.869 130.75 189.747 130.71C186.255 129.897 187.435 118.547 187.435 118.547C187.628 118.638 187.851 120.081 188.643 121.945C190.052 125.219 191.607 129.793 190.48 130.615Z" fill="black"/>
<path opacity="0.1" d="M198.225 123.882C198.225 123.882 198.453 129.988 192.603 130.712L192.24 130.033C192.24 130.033 197.864 125.782 198.225 123.882Z" fill="black"/>
<path opacity="0.1" d="M196.548 120.807C196.592 127.366 191.879 130.304 191.879 130.304L191.742 130.273L190.382 129.986C190.65 127.972 192.29 125.433 193.726 123.543C194.539 122.509 195.489 121.589 196.548 120.807Z" fill="black"/>
<path opacity="0.1" d="M191.721 130.021C191.511 130.276 191.244 130.479 190.943 130.615C190.852 130.657 190.756 130.689 190.658 130.71C189.797 130.917 189.498 130.296 189.548 129.243C189.629 127.38 190.808 124.131 191.866 121.705C192.628 119.958 193.873 118.634 194.058 118.547C194.054 118.547 194.002 127.384 191.721 130.021Z" fill="black"/>
<path opacity="0.1" d="M190.743 114.567C190.743 114.567 186.844 128.359 190.2 130.439C193.556 132.519 191.607 115.788 190.743 114.567Z" fill="black"/>
<path d="M183.262 123.882C183.262 123.882 182.492 129.988 188.34 130.712L188.703 130.033C188.703 130.033 183.625 125.782 183.262 123.882Z" fill="#794C74"/>
<path d="M190.569 129.986L189.21 130.273L189.073 130.304C189.073 130.304 184.901 127.366 184.947 120.807C184.947 120.807 186.016 121.949 187.23 123.543C188.658 125.439 190.291 127.978 190.569 129.986Z" fill="#794C74"/>
<path opacity="0.1" d="M190.569 129.986L189.21 130.273C187.921 129.145 187.408 126.198 187.224 123.543C188.658 125.439 190.291 127.978 190.569 129.986Z" fill="black"/>
<path d="M191.024 130.615C190.917 130.685 190.795 130.729 190.668 130.746C190.541 130.762 190.412 130.75 190.291 130.71C186.798 129.897 187.435 118.547 187.435 118.547C187.628 118.638 188.384 120.081 189.187 121.945C190.596 125.219 192.144 129.793 191.024 130.615Z" fill="#794C74"/>
<path d="M198.225 123.882C198.225 123.882 198.997 129.988 193.147 130.712L192.786 130.033C192.786 130.033 197.864 125.782 198.225 123.882Z" fill="#794C74"/>
<path d="M196.548 120.807C196.592 127.366 192.422 130.304 192.422 130.304L192.285 130.273L190.926 129.986C191.196 127.972 192.833 125.433 194.269 123.543C195.479 121.949 196.548 120.807 196.548 120.807Z" fill="#794C74"/>
<path opacity="0.1" d="M194.269 123.543C194.095 126.027 193.647 128.746 192.536 130.021C192.46 130.112 192.376 130.197 192.285 130.273L190.926 129.986C191.192 127.978 192.833 125.439 194.269 123.543Z" fill="black"/>
<path d="M192.265 130.021C192.055 130.276 191.788 130.48 191.486 130.615C191.394 130.656 191.299 130.688 191.2 130.71C190.341 130.917 190.04 130.296 190.09 129.243C190.171 127.38 191.349 124.131 192.408 121.705C193.169 119.958 193.861 118.634 194.056 118.547C194.054 118.547 194.547 127.384 192.265 130.021Z" fill="#794C74"/>
<path opacity="0.1" d="M191.024 130.615C190.826 130.615 190.633 130.553 190.472 130.439C188.828 129.419 188.795 125.588 189.187 121.954C190.596 125.219 192.144 129.793 191.024 130.615Z" fill="black"/>
<path opacity="0.1" d="M192.265 130.021C192.076 130.435 191.821 130.642 191.486 130.615C191.318 130.593 191.158 130.533 191.017 130.439C190.591 130.146 190.267 129.728 190.09 129.243C190.171 127.38 191.349 124.131 192.408 121.705C192.783 125.081 192.908 128.64 192.265 130.021Z" fill="black"/>
<path d="M190.743 114.567C190.743 114.567 187.39 128.359 190.743 130.439C194.097 132.519 191.607 115.788 190.743 114.567Z" fill="#794C74"/>
<path d="M197.183 129.762H183.218V132.068H185.348L185.402 132.339L186.255 136.815H194.373L195.226 132.339L195.278 132.068H197.183V129.762Z" fill="#4B4770"/>
<path opacity="0.1" d="M197.183 129.762H183.218V132.068H185.348L185.402 132.339L186.255 136.815H194.373L195.226 132.339L195.278 132.068H197.183V129.762Z" fill="black"/>
<path d="M196.004 131.118L195.772 132.339L194.917 136.815H186.798L185.945 132.339L185.711 131.118H196.004Z" fill="#4B4770"/>
<path opacity="0.1" d="M196.004 131.118L195.772 132.339H185.945L185.711 131.118H196.004Z" fill="black"/>
<path d="M197.727 129.762H183.762V132.068H197.727V129.762Z" fill="#4B4770"/>
<path d="M22.652 116.138C22.4529 116.41 22.2936 116.709 22.1788 117.026C22.1497 117.102 22.1207 117.191 22.0916 117.276C22.0393 117.251 21.9843 117.233 21.9277 117.22C21.6859 117.159 21.4356 117.137 21.1868 117.156C21.1868 117.061 21.1993 116.949 21.2013 116.852C21.2325 115.761 21.1038 114.242 20.0599 114.886C19.0596 115.507 19.7735 116.542 20.4189 117.204C20.475 117.262 20.531 117.316 20.585 117.367C19.9956 117.781 19.8835 118.76 19.786 119.776C19.6884 120.793 18.823 121.904 18.2482 122.537C18.1901 122.601 18.1382 122.659 18.0863 122.713C17.8555 122.529 17.5882 122.396 17.3021 122.322C17.016 122.248 16.7174 122.235 16.426 122.285C16.4032 122.196 16.3783 122.103 16.3493 122.003C15.874 120.321 14.9111 117.423 13.6783 116.802C13.7302 116.738 13.7842 116.672 13.8402 116.595C14.3632 115.912 14.9526 114.898 14.083 114.64C13.2135 114.381 13.1346 115.519 13.1823 116.372C13.1823 116.477 13.1989 116.579 13.2072 116.674C13.0341 116.682 12.8644 116.725 12.7084 116.8C12.5525 116.876 12.4136 116.982 12.3003 117.113L12.1654 116.953C11.4598 116.126 10.1669 114.809 9.77469 115.805C9.41151 116.73 10.5488 117.934 11.3498 118.632L11.3997 118.675C10.8622 120.853 13.2093 122.626 14.4732 123.4L14.6371 123.502C12.8939 125.548 11.8168 129.39 11.8168 129.39L16.7 130.259C16.7 130.259 19.9354 127.473 19.5203 124.859H19.5535C22.7889 124.212 23.5236 120.772 23.0214 118.731L23.0774 118.706C23.6664 118.466 24.1827 118.077 24.5758 117.578C25.4785 116.322 23.5817 114.907 22.652 116.138Z" fill="#794C74"/>
<path opacity="0.1" d="M22.652 116.138C22.4529 116.41 22.2936 116.709 22.1788 117.026C22.1497 117.102 22.1207 117.191 22.0916 117.276C22.0393 117.251 21.9843 117.233 21.9277 117.22C21.6859 117.159 21.4356 117.137 21.1868 117.156C21.1868 117.061 21.1993 116.949 21.2013 116.852C21.2325 115.761 21.1038 114.242 20.0599 114.886C19.0596 115.507 19.7735 116.542 20.4189 117.204C20.475 117.262 20.531 117.316 20.585 117.367C19.9956 117.781 19.8835 118.76 19.786 119.776C19.6884 120.793 18.823 121.904 18.2482 122.537C18.1901 122.601 18.1382 122.659 18.0863 122.713C17.8555 122.529 17.5882 122.396 17.3021 122.322C17.016 122.248 16.7174 122.235 16.426 122.285C16.4032 122.196 16.3783 122.103 16.3493 122.003C15.874 120.321 14.9111 117.423 13.6783 116.802C13.7302 116.738 13.7842 116.672 13.8402 116.595C14.3632 115.912 14.9526 114.898 14.083 114.64C13.2135 114.381 13.1346 115.519 13.1823 116.372C13.1823 116.477 13.1989 116.579 13.2072 116.674C13.0341 116.682 12.8644 116.725 12.7084 116.8C12.5525 116.876 12.4136 116.982 12.3003 117.113L12.1654 116.953C11.4598 116.126 10.1669 114.809 9.77469 115.805C9.41151 116.73 10.5488 117.934 11.3498 118.632L11.3997 118.675C10.8622 120.853 13.2093 122.626 14.4732 123.4L14.6371 123.502C12.8939 125.548 11.8168 129.39 11.8168 129.39L16.7 130.259C16.7 130.259 19.9354 127.473 19.5203 124.859H19.5535C22.7889 124.212 23.5236 120.772 23.0214 118.731L23.0774 118.706C23.6664 118.466 24.1827 118.077 24.5758 117.578C25.4785 116.322 23.5817 114.907 22.652 116.138Z" fill="black"/>
<path d="M12.9354 117.541L12.3647 119.197C12.3647 119.197 12.0471 118.973 11.6466 118.622C10.8455 117.924 9.70826 116.72 10.0714 115.794C10.4637 114.799 11.7566 116.113 12.4622 116.943C12.7465 117.285 12.9354 117.541 12.9354 117.541Z" fill="#794C74"/>
<path d="M14.139 116.595C13.9653 116.822 13.7797 117.04 13.5828 117.247C13.5342 116.957 13.5002 116.665 13.4811 116.372C13.4334 115.519 13.5247 114.387 14.3818 114.64C15.2389 114.892 14.662 115.908 14.139 116.595Z" fill="#794C74"/>
<path d="M21.5001 116.852C21.4835 117.4 21.4296 117.839 21.4296 117.839C21.1779 117.644 20.9401 117.432 20.7177 117.204C20.0723 116.537 19.3584 115.507 20.3587 114.886C21.4026 114.242 21.5313 115.768 21.5001 116.852Z" fill="#794C74"/>
<path d="M24.8726 117.572C24.4795 118.071 23.9632 118.46 23.3742 118.7C23.211 118.772 23.0433 118.833 22.872 118.882L22.1996 117.941C22.2708 117.63 22.3637 117.324 22.4777 117.026C22.5924 116.709 22.7517 116.41 22.9508 116.138C23.8806 114.907 25.7774 116.322 24.8726 117.572Z" fill="#794C74"/>
<path opacity="0.1" d="M12.4622 116.953C12.7465 117.285 12.9354 117.541 12.9354 117.541L12.3647 119.197C12.3647 119.197 12.0471 118.973 11.6466 118.621C11.7356 118.088 11.9567 117.585 12.29 117.158C12.346 117.092 12.4062 117.02 12.4622 116.953Z" fill="black"/>
<path opacity="0.1" d="M14.1391 116.595C13.9654 116.822 13.7797 117.04 13.5829 117.247C13.5342 116.957 13.5003 116.665 13.4812 116.372C13.7186 116.376 13.9487 116.454 14.1391 116.595Z" fill="black"/>
<path d="M16.9469 123.204L15.5253 123.825C15.5253 123.825 15.2161 123.675 14.7699 123.398C13.2777 122.483 10.2789 120.18 12.2795 117.465C14.2801 114.749 15.9673 119.619 16.6377 122.001C16.839 122.715 16.9469 123.204 16.9469 123.204Z" fill="#794C74"/>
<path opacity="0.1" d="M20.7178 117.204C20.9245 116.992 21.2041 116.866 21.5002 116.852C21.4836 117.4 21.4296 117.839 21.4296 117.839C21.178 117.644 20.9401 117.432 20.7178 117.204Z" fill="black"/>
<path opacity="0.1" d="M23.3742 118.7C23.211 118.772 23.0433 118.833 22.872 118.882L22.1996 117.941C22.2708 117.63 22.3637 117.324 22.4777 117.026C22.9114 117.278 23.231 117.907 23.3742 118.7Z" fill="black"/>
<path d="M19.8503 124.853L19.6117 124.894C14.853 125.615 18.0427 123.055 18.0427 123.055C18.0427 123.055 18.2503 122.848 18.547 122.537C19.1219 121.904 19.9852 120.799 20.0848 119.776C20.2343 118.239 20.4065 116.796 22.2266 117.22C24.0134 117.63 24.3558 123.953 19.8503 124.853Z" fill="#794C74"/>
<path d="M19.7611 136.668H10.6692V139.053H19.7611V136.668Z" fill="#D4DFEC"/>
<path d="M21.1038 128.918H9.22473V137.238H21.1038V128.918Z" fill="#D4DFEC"/>
<path opacity="0.1" d="M19.7611 136.668H10.6692V139.053H19.7611V136.668Z" fill="black"/>
<path opacity="0.1" d="M21.1038 128.918H9.22473V137.238H21.1038V128.918Z" fill="black"/>
<path d="M20.3588 136.668H11.2668V139.053H20.3588V136.668Z" fill="#D4DFEC"/>
<path opacity="0.1" d="M16.6377 122.003C16.8452 122.715 16.9469 123.204 16.9469 123.204L15.5253 123.824C15.5253 123.824 15.2161 123.675 14.7699 123.398C15.3261 122.699 15.9528 122.167 16.6377 122.003Z" fill="black"/>
<path opacity="0.1" d="M19.8503 124.853L19.6117 124.894C14.853 125.615 18.0427 123.055 18.0427 123.055C18.0427 123.055 18.2503 122.848 18.547 122.537C19.4353 123.245 19.8026 124.046 19.8503 124.853Z" fill="black"/>
<path d="M12.1135 129.39C12.1135 129.39 14.7782 119.869 18.5158 122.808C22.2535 125.747 16.9967 130.259 16.9967 130.259L12.1135 129.39Z" fill="#794C74"/>
<path opacity="0.1" d="M13.4584 119.257C13.6234 119.257 13.7572 119.123 13.7572 118.959C13.7572 118.794 13.6234 118.661 13.4584 118.661C13.2933 118.661 13.1595 118.794 13.1595 118.959C13.1595 119.123 13.2933 119.257 13.4584 119.257Z" fill="black"/>
<path opacity="0.1" d="M13.4335 120.648C13.5985 120.648 13.7323 120.514 13.7323 120.35C13.7323 120.185 13.5985 120.052 13.4335 120.052C13.2684 120.052 13.1346 120.185 13.1346 120.35C13.1346 120.514 13.2684 120.648 13.4335 120.648Z" fill="black"/>
<path opacity="0.1" d="M22.1021 119.53C22.2671 119.53 22.4009 119.397 22.4009 119.232C22.4009 119.067 22.2671 118.934 22.1021 118.934C21.937 118.934 21.8032 119.067 21.8032 119.232C21.8032 119.397 21.937 119.53 22.1021 119.53Z" fill="black"/>
<path opacity="0.1" d="M15.127 126.658C15.292 126.658 15.4258 126.524 15.4258 126.36C15.4258 126.195 15.292 126.062 15.127 126.062C14.9619 126.062 14.8281 126.195 14.8281 126.36C14.8281 126.524 14.9619 126.658 15.127 126.658Z" fill="black"/>
<path opacity="0.1" d="M21.4794 121.84C21.6444 121.84 21.7782 121.706 21.7782 121.542C21.7782 121.377 21.6444 121.244 21.4794 121.244C21.3143 121.244 21.1805 121.377 21.1805 121.542C21.1805 121.706 21.3143 121.84 21.4794 121.84Z" fill="black"/>
<path opacity="0.1" d="M18.3914 124.919C18.5564 124.919 18.6902 124.786 18.6902 124.621C18.6902 124.457 18.5564 124.323 18.3914 124.323C18.2263 124.323 18.0925 124.457 18.0925 124.621C18.0925 124.786 18.2263 124.919 18.3914 124.919Z" fill="black"/>
<path opacity="0.1" d="M14.4794 119.853C14.6444 119.853 14.7782 119.719 14.7782 119.555C14.7782 119.39 14.6444 119.257 14.4794 119.257C14.3143 119.257 14.1805 119.39 14.1805 119.555C14.1805 119.719 14.3143 119.853 14.4794 119.853Z" fill="black"/>
<path opacity="0.1" d="M21.2802 120.424C21.4452 120.424 21.579 120.291 21.579 120.126C21.579 119.962 21.4452 119.828 21.2802 119.828C21.1151 119.828 20.9813 119.962 20.9813 120.126C20.9813 120.291 21.1151 120.424 21.2802 120.424Z" fill="black"/>
<path opacity="0.1" d="M20.2592 122.734C20.4242 122.734 20.558 122.6 20.558 122.436C20.558 122.271 20.4242 122.138 20.2592 122.138C20.0941 122.138 19.9603 122.271 19.9603 122.436C19.9603 122.6 20.0941 122.734 20.2592 122.734Z" fill="black"/>
<path opacity="0.1" d="M17.1212 126.434C17.2863 126.434 17.4201 126.301 17.4201 126.136C17.4201 125.972 17.2863 125.838 17.1212 125.838C16.9562 125.838 16.8224 125.972 16.8224 126.136C16.8224 126.301 16.9562 126.434 17.1212 126.434Z" fill="black"/>
<path opacity="0.1" d="M16.4738 124.969C16.6388 124.969 16.7726 124.836 16.7726 124.671C16.7726 124.506 16.6388 124.373 16.4738 124.373C16.3087 124.373 16.1749 124.506 16.1749 124.671C16.1749 124.836 16.3087 124.969 16.4738 124.969Z" fill="black"/>
<path opacity="0.1" d="M14.9276 121.666C15.0927 121.666 15.2265 121.532 15.2265 121.368C15.2265 121.203 15.0927 121.07 14.9276 121.07C14.7626 121.07 14.6288 121.203 14.6288 121.368C14.6288 121.532 14.7626 121.666 14.9276 121.666Z" fill="black"/>
<path opacity="0.1" d="M20.3588 136.668H11.2668V137.54H20.3588V136.668Z" fill="black"/>
<path d="M21.7014 128.918H9.82239V137.238H21.7014V128.918Z" fill="#D4DFEC"/>
<path opacity="0.1" d="M17.5198 127.775C17.6848 127.775 17.8186 127.642 17.8186 127.477C17.8186 127.313 17.6848 127.179 17.5198 127.179C17.3547 127.179 17.2209 127.313 17.2209 127.477C17.2209 127.642 17.3547 127.775 17.5198 127.775Z" fill="black"/>
<path opacity="0.1" d="M15.7267 128.148C15.8917 128.148 16.0255 128.014 16.0255 127.85C16.0255 127.685 15.8917 127.552 15.7267 127.552C15.5617 127.552 15.4279 127.685 15.4279 127.85C15.4279 128.014 15.5617 128.148 15.7267 128.148Z" fill="black"/>
</g>
<defs>
<linearGradient id="paint0_linear" x1="93.5839" y1="168.36" x2="93.5839" y2="5.4824" gradientUnits="userSpaceOnUse">
<stop stop-color="#808080" stop-opacity="0.25"/>
<stop offset="0.54" stop-color="#808080" stop-opacity="0.12"/>
<stop offset="1" stop-color="#808080" stop-opacity="0.1"/>
</linearGradient>
<clipPath id="clip0">
<rect width="223" height="174" fill="white"/>
</clipPath>
</defs>
</svg>
