<svg width="20" height="20" viewBox="0 0 20 20" fill="none" xmlns="http://www.w3.org/2000/svg">
<g clip-path="url(#clip0)">
<path d="M18.4749 7.55631L19.4384 6.59287C20.2393 5.79209 20.2393 4.48899 19.4384 3.68806L16.3118 0.561528C15.511 -0.239254 14.2079 -0.239254 13.4072 0.561528L12.4437 1.52497L18.4749 7.55631Z" fill="#794C74"/>
<path d="M1.55289 12.4158L11.6148 2.35382L17.646 8.38502L7.58407 18.447L1.55289 12.4158Z" fill="#794C74"/>
<path d="M0.918583 13.4387L0.0717198 17.8238C-0.0415005 18.4102 0.142978 19.0123 0.565342 19.4347C0.905766 19.7751 1.36292 19.9609 1.83472 19.9609C1.94809 19.9609 2.06238 19.9503 2.17621 19.9281L6.56113 19.0814L0.918583 13.4387Z" fill="#794C74"/>
</g>
<defs>
<clipPath id="clip0">
<rect width="20" height="20" fill="white"/>
</clipPath>
</defs>
</svg>
