<svg width="91" height="97" viewBox="0 0 91 97" fill="none" xmlns="http://www.w3.org/2000/svg">
<g clip-path="url(#clip0)">
<path d="M11.4973 9.26185C21.0679 3.93602 32.8103 0.799231 45.5 0.799231C58.1896 0.799231 69.9321 3.93602 79.5027 9.26185C87.6114 13.7742 92.1416 23.2714 90.7512 32.9082L84.138 78.7453C82.6891 88.7874 74.5832 96.2008 65.0514 96.2008H25.9484C16.4166 96.2008 8.31066 88.7876 6.8618 78.7453L0.248646 32.9082C-1.14162 23.2714 3.3886 13.7742 11.4973 9.26185V9.26185Z" fill="#794C74"/>
<path d="M21.3302 49.633H69.6697C74.33 49.633 77.8938 54.0606 77.1856 58.9705L74.559 77.1759C73.8321 82.2135 69.8331 85.8706 65.0511 85.8706H25.9491C21.1669 85.8706 17.168 82.2133 16.4411 77.1759L13.8146 58.9705C13.106 54.0606 16.6698 49.633 21.3302 49.633Z" fill="#BA95B9"/>
<path d="M64.0958 76.9872C60.3064 76.9872 57.2344 74.3795 57.2344 71.1627C57.2344 67.9459 60.3064 65.3382 64.0958 65.3382C67.8853 65.3382 70.9573 67.9459 70.9573 71.1627C70.9573 74.3795 67.8853 76.9872 64.0958 76.9872Z" fill="#FF9DB0"/>
<path d="M26.9041 76.9872C23.1147 76.9872 20.0427 74.3795 20.0427 71.1627C20.0427 67.9459 23.1147 65.3382 26.9041 65.3382C30.6936 65.3382 33.7656 67.9459 33.7656 71.1627C33.7656 74.3795 30.6936 76.9872 26.9041 76.9872Z" fill="#FF9DB0"/>
<path d="M60.097 67.0198C60.8554 67.0198 61.4702 66.3644 61.4702 65.556V62.566C61.4702 61.7576 60.8554 61.1022 60.097 61.1022C59.3386 61.1022 58.7237 61.7576 58.7237 62.566V65.5558C58.7237 66.3644 59.3386 67.0198 60.097 67.0198Z" fill="#423E4F"/>
<path d="M30.903 67.0198C31.6614 67.0198 32.2762 66.3644 32.2762 65.556V62.566C32.2762 61.7576 31.6614 61.1022 30.903 61.1022C30.1446 61.1022 29.5298 61.7576 29.5298 62.566V65.5558C29.5298 66.3644 30.1446 67.0198 30.903 67.0198Z" fill="#423E4F"/>
<path d="M45.5 68.7995C47.3718 68.7995 49.1519 67.9353 50.3836 66.4286C50.8818 65.8191 50.8223 64.8946 50.2505 64.3633C49.6787 63.8323 48.8113 63.8957 48.3129 64.5052C47.6029 65.3737 46.5775 65.8718 45.4998 65.8718C44.4221 65.8718 43.3967 65.3737 42.6867 64.5052C42.1885 63.8955 41.321 63.8323 40.7491 64.3633C40.1773 64.8944 40.1178 65.8191 40.616 66.4286C41.8481 67.9353 43.6282 68.7995 45.5 68.7995V68.7995Z" fill="#423E4F"/>
<path d="M24.2954 14.6771C30.8618 12.3432 38.0528 11.1308 45.5 11.1308C52.9472 11.1308 60.1384 12.3432 66.7047 14.6771C69.9521 15.8313 71.7148 19.5651 70.644 23.031L66.7878 35.5131C65.949 38.228 63.5706 40.0622 60.8893 40.0622H50.8844L45.5 37.029L40.1156 40.0622H30.1108C27.4295 40.0622 25.0508 38.2278 24.2122 35.5131L20.356 23.031C19.285 19.5649 21.0477 15.8313 24.2954 14.6771V14.6771Z" fill="white"/>
<path d="M45.5001 11.1308C45.9589 11.1308 46.4166 11.1357 46.8733 11.1449V17.1218C46.8733 17.9302 46.2584 18.5856 45.5001 18.5856C44.7417 18.5856 44.1268 17.9302 44.1268 17.1218V11.1447C44.5835 11.1357 45.0412 11.1308 45.5001 11.1308V11.1308Z" fill="#423E4F"/>
<path d="M62.3229 13.3784L60.8197 18.9084C60.6069 19.6914 59.8407 20.1301 59.1185 19.9069C58.39 19.6818 57.9707 18.8699 58.1818 18.0935L59.6589 12.66C60.5601 12.8602 61.4527 13.0796 62.3363 13.3183C62.3315 13.3384 62.3284 13.3585 62.3229 13.3784V13.3784Z" fill="#423E4F"/>
<path d="M28.6637 13.3183C29.5474 13.0796 30.44 12.86 31.3412 12.66L32.8182 18.0935C33.0294 18.8701 32.6099 19.6818 31.8815 19.9069C31.1553 20.1313 30.392 19.6871 30.1803 18.9084L28.6771 13.3784C28.6716 13.3585 28.6685 13.3384 28.6637 13.3183V13.3183Z" fill="#423E4F"/>
<path d="M43.6139 25.6886C43.8368 24.7727 44.6124 24.1331 45.5 24.1331C46.3877 24.1331 47.1633 24.7727 47.3861 25.6886L50.8844 40.0624H40.1156L43.6139 25.6886Z" fill="#FF748F"/>
<path d="M80.4607 46.7144C80.4607 29.3213 78.119 13.88 67.6934 4.18388C71.8993 5.52471 75.8588 7.23401 79.5027 9.26165C87.6112 13.7742 92.1416 23.2714 90.7512 32.9082L84.138 78.7453C82.6892 88.7874 74.5832 96.2008 65.0515 96.2008H60.9116C75.2522 90.5184 80.4607 76.9101 80.4607 46.7144V46.7144Z" fill="#7E417E"/>
</g>
<defs>
<clipPath id="clip0">
<rect width="91" height="97" fill="white" transform="matrix(-1 0 0 1 91 0)"/>
</clipPath>
</defs>
</svg>
